<svg xmlns="http://www.w3.org/2000/svg" xmlns:xlink="http://www.w3.org/1999/xlink" width="500" zoomAndPan="magnify" viewBox="0 0 375 374.999991" height="500" preserveAspectRatio="xMidYMid meet" version="1.0"><defs><g/><clipPath id="ae1e8c1671"><path d="M 52 150.199219 L 93 150.199219 L 93 224.449219 L 52 224.449219 Z M 52 150.199219 " clip-rule="nonzero"/></clipPath><clipPath id="64fc5b7b9b"><path d="M 92 190 L 117.277344 190 L 117.277344 224.449219 L 92 224.449219 Z M 92 190 " clip-rule="nonzero"/></clipPath><clipPath id="ecc5b3bd5b"><path d="M 31.777344 190 L 57 190 L 57 224.449219 L 31.777344 224.449219 Z M 31.777344 190 " clip-rule="nonzero"/></clipPath></defs><path stroke-linecap="round" transform="matrix(0, -0.75, 0.75, 0, 139.358916, 224.794908)" fill="none" stroke-linejoin="miter" d="M 2.502585 2.500612 L 96.966133 2.500612 " stroke="#0b1320" stroke-width="5" stroke-opacity="1" stroke-miterlimit="4"/><g clip-path="url(#ae1e8c1671)"><path fill="#0b1320" d="M 74.691406 168.71875 L 67.4375 181.316406 L 92.460938 224.746094 L 57.996094 224.746094 L 52.683594 215.53125 L 76.507812 215.53125 L 56.800781 181.316406 L 74.691406 150.253906 L 92.71875 181.503906 L 87.386719 190.707031 Z M 74.691406 168.71875 " fill-opacity="1" fill-rule="nonzero"/></g><g clip-path="url(#64fc5b7b9b)"><path fill="#0b1320" d="M 117.601562 224.746094 L 106.964844 224.746094 L 92.722656 200.03125 L 98.042969 190.785156 Z M 117.601562 224.746094 " fill-opacity="1" fill-rule="nonzero"/></g><g clip-path="url(#ecc5b3bd5b)"><path fill="#0b1320" d="M 56.707031 200.019531 L 42.414062 224.746094 L 31.777344 224.746094 L 51.390625 190.773438 Z M 56.707031 200.019531 " fill-opacity="1" fill-rule="nonzero"/></g><g fill="#0b1320" fill-opacity="1"><g transform="translate(164.863998, 198.405103)"><g><path d="M 11.421875 0.359375 C 16.5625 0.359375 19.75 -2.453125 20.390625 -6.8125 L 16.484375 -6.8125 C 16.03125 -4.140625 14.0625 -2.8125 11.359375 -2.8125 C 7.109375 -2.8125 4.890625 -6.109375 4.890625 -10.75 C 4.890625 -15.359375 7.109375 -18.625 11.359375 -18.625 C 14.0625 -18.625 16.03125 -17.296875 16.484375 -14.984375 L 20.390625 -14.984375 C 19.765625 -19.046875 16.5625 -21.796875 11.421875 -21.796875 C 4.421875 -21.796875 1.203125 -16.625 1.203125 -10.75 C 1.203125 -4.859375 4.421875 0.359375 11.421875 0.359375 Z M 11.421875 0.359375 "/></g></g></g><g fill="#0b1320" fill-opacity="1"><g transform="translate(191.097836, 198.405103)"><g><path d="M 16.203125 0 L 16.203125 -3.203125 L 5.5625 -3.203125 L 5.5625 -9.171875 L 15.015625 -9.171875 L 15.015625 -12.34375 L 5.5625 -12.34375 L 5.5625 -18.25 L 16.203125 -18.25 L 16.203125 -21.453125 L 2 -21.453125 L 2 0 Z M 16.203125 0 "/></g></g></g><g fill="#0b1320" fill-opacity="1"><g transform="translate(213.367491, 198.405103)"><g><path d="M 5.5625 0 L 5.5625 -16.53125 L 14.65625 0 L 18.953125 0 L 18.953125 -21.453125 L 15.40625 -21.453125 L 15.40625 -4.921875 L 6.328125 -21.453125 L 2 -21.453125 L 2 0 Z M 5.5625 0 "/></g></g></g><g fill="#0b1320" fill-opacity="1"><g transform="translate(239.207719, 198.405103)"><g><path d="M 10.65625 0 L 10.65625 -18.25 L 17.46875 -18.25 L 17.46875 -21.453125 L 0.34375 -21.453125 L 0.34375 -18.25 L 7.09375 -18.25 L 7.09375 0 Z M 10.65625 0 "/></g></g></g><g fill="#0b1320" fill-opacity="1"><g transform="translate(261.842862, 198.405103)"><g><path d="M 14.125 -9.359375 C 16.3125 -10.34375 17.640625 -12.34375 17.640625 -15.1875 C 17.640625 -19.546875 14.875 -21.453125 10.859375 -21.453125 L 2 -21.453125 L 2 0 L 5.5625 0 L 5.5625 -8.75 L 10.6875 -8.75 L 14.234375 0 L 18.078125 0 Z M 5.5625 -18.25 L 10.375 -18.25 C 12.765625 -18.25 14.125 -17.125 14.125 -15.078125 C 14.125 -13 12.796875 -11.875 10.375 -11.875 L 5.5625 -11.875 Z M 5.5625 -18.25 "/></g></g></g><g fill="#0b1320" fill-opacity="1"><g transform="translate(285.799404, 198.405103)"><g><path d="M 11.46875 0.359375 C 18.453125 0.359375 21.734375 -4.84375 21.734375 -10.75 C 21.734375 -16.65625 18.453125 -21.796875 11.46875 -21.796875 C 4.46875 -21.796875 1.203125 -16.65625 1.203125 -10.75 C 1.203125 -4.84375 4.46875 0.359375 11.46875 0.359375 Z M 11.46875 -2.84375 C 7.25 -2.84375 4.890625 -6.109375 4.890625 -10.75 C 4.890625 -15.359375 7.25 -18.625 11.46875 -18.625 C 15.71875 -18.625 18.0625 -15.359375 18.0625 -10.75 C 18.0625 -6.109375 15.71875 -2.84375 11.46875 -2.84375 Z M 11.46875 -2.84375 "/></g></g></g><g fill="#0b1320" fill-opacity="1"><g transform="translate(313.635791, 198.405103)"><g><path d="M 5.5625 0 L 5.5625 -21.453125 L 2 -21.453125 L 2 0 Z M 5.5625 0 "/></g></g></g><g fill="#0b1320" fill-opacity="1"><g transform="translate(326.121489, 198.405103)"><g><path d="M 8.125 0 C 15.359375 0 19.296875 -3.859375 19.296875 -10.71875 C 19.296875 -17.609375 15.359375 -21.453125 8.15625 -21.453125 L 2 -21.453125 L 2 0 Z M 5.5625 -18.25 L 8.09375 -18.25 C 12.65625 -18.25 15.71875 -16.09375 15.71875 -10.71875 C 15.71875 -4.890625 12.453125 -3.203125 8.09375 -3.203125 L 5.5625 -3.203125 Z M 5.5625 -18.25 "/></g></g></g></svg>