<?xml version="1.0" encoding="UTF-8" standalone="no"?>
<svg
   width="418.18802"
   zoomAndPan="magnify"
   viewBox="0 0 313.64101 74.597658"
   height="99.463547"
   preserveAspectRatio="xMidYMid"
   version="1.0"
   id="svg31"
   sodipodi:docname="centroid.svg"
   inkscape:version="1.4 (e7c3feb100, 2024-10-09)"
   xmlns:inkscape="http://www.inkscape.org/namespaces/inkscape"
   xmlns:sodipodi="http://sodipodi.sourceforge.net/DTD/sodipodi-0.dtd"
   xmlns="http://www.w3.org/2000/svg"
   xmlns:svg="http://www.w3.org/2000/svg">
  <sodipodi:namedview
     id="namedview31"
     pagecolor="#ffffff"
     bordercolor="#000000"
     borderopacity="0.25"
     inkscape:showpageshadow="2"
     inkscape:pageopacity="0.0"
     inkscape:pagecheckerboard="0"
     inkscape:deskcolor="#d1d1d1"
     inkscape:zoom="1.6"
     inkscape:cx="38.75"
     inkscape:cy="-24.375"
     inkscape:window-width="3840"
     inkscape:window-height="2123"
     inkscape:window-x="0"
     inkscape:window-y="0"
     inkscape:window-maximized="1"
     inkscape:current-layer="svg31" />
  <defs
     id="defs3">
    <g
       id="g1" />
    <clipPath
       id="ae1e8c1671">
      <path
         d="m 52,150.19922 h 41 v 74.25 H 52 Z m 0,0"
         clip-rule="nonzero"
         id="path1" />
    </clipPath>
    <clipPath
       id="64fc5b7b9b">
      <path
         d="m 92,190 h 25.27734 v 34.44922 H 92 Z m 0,0"
         clip-rule="nonzero"
         id="path2" />
    </clipPath>
    <clipPath
       id="ecc5b3bd5b">
      <path
         d="M 31.777344,190 H 57 v 34.44922 H 31.777344 Z m 0,0"
         clip-rule="nonzero"
         id="path3" />
    </clipPath>
  </defs>
  <path
     stroke-linecap="round"
     fill="none"
     stroke-linejoin="miter"
     d="M 109.45704,72.72266 V 1.875"
     stroke="#0b1320"
     stroke-width="3.75"
     stroke-opacity="1"
     stroke-miterlimit="4"
     id="path4" />
  <g
     clip-path="url(#ae1e8c1671)"
     id="g5"
     transform="translate(-31.777344,-150.19531)">
    <path
       fill="#0b1320"
       d="M 74.691406,168.71875 67.4375,181.31641 92.460938,224.74609 H 57.996094 l -5.3125,-9.21484 h 23.824218 l -19.707031,-34.21484 17.890625,-31.0625 18.027344,31.25 -5.332031,9.20312 z m 0,0"
       fill-opacity="1"
       fill-rule="nonzero"
       id="path5" />
  </g>
  <g
     clip-path="url(#64fc5b7b9b)"
     id="g6"
     transform="translate(-31.777344,-150.19531)">
    <path
       fill="#0b1320"
       d="m 117.60156,224.74609 h -10.63672 l -14.242184,-24.71484 5.320313,-9.24609 z m 0,0"
       fill-opacity="1"
       fill-rule="nonzero"
       id="path6" />
  </g>
  <g
     clip-path="url(#ecc5b3bd5b)"
     id="g7"
     transform="translate(-31.777344,-150.19531)">
    <path
       fill="#0b1320"
       d="M 56.707031,200.01953 42.414062,224.74609 H 31.777344 l 19.613281,-33.97265 z m 0,0"
       fill-opacity="1"
       fill-rule="nonzero"
       id="path7" />
  </g>
  <g
     fill="#0b1320"
     fill-opacity="1"
     id="g10"
     transform="translate(-31.777344,-150.19531)">
    <g
       transform="translate(164.864,198.4051)"
       id="g9">
      <g
         id="g8">
        <path
           d="m 11.421875,0.359375 c 5.140625,0 8.328125,-2.8125 8.96875,-7.171875 h -3.90625 c -0.453125,2.671875 -2.421875,4 -5.125,4 -4.25,0 -6.46875,-3.296875 -6.46875,-7.9375 0,-4.609375 2.21875,-7.875 6.46875,-7.875 2.703125,0 4.671875,1.328125 5.125,3.640625 h 3.90625 c -0.625,-4.0625 -3.828125,-6.8125 -8.96875,-6.8125 -7,0 -10.21875,5.171875 -10.21875,11.046875 0,5.890625 3.21875,11.109375 10.21875,11.109375 z m 0,0"
           id="path8" />
      </g>
    </g>
  </g>
  <g
     fill="#0b1320"
     fill-opacity="1"
     id="g13"
     transform="translate(-31.777344,-150.19531)">
    <g
       transform="translate(191.09784,198.4051)"
       id="g12">
      <g
         id="g11">
        <path
           d="M 16.203125,0 V -3.203125 H 5.5625 v -5.96875 h 9.453125 V -12.34375 H 5.5625 V -18.25 h 10.640625 v -3.203125 H 2 V 0 Z m 0,0"
           id="path10" />
      </g>
    </g>
  </g>
  <g
     fill="#0b1320"
     fill-opacity="1"
     id="g16"
     transform="translate(-31.777344,-150.19531)">
    <g
       transform="translate(213.36749,198.4051)"
       id="g15">
      <g
         id="g14">
        <path
           d="M 5.5625,0 V -16.53125 L 14.65625,0 h 4.296875 V -21.453125 H 15.40625 v 16.53125 L 6.328125,-21.453125 H 2 V 0 Z m 0,0"
           id="path13" />
      </g>
    </g>
  </g>
  <g
     fill="#0b1320"
     fill-opacity="1"
     id="g19"
     transform="translate(-31.777344,-150.19531)">
    <g
       transform="translate(239.20772,198.4051)"
       id="g18">
      <g
         id="g17">
        <path
           d="m 10.65625,0 v -18.25 h 6.8125 v -3.203125 H 0.34375 V -18.25 h 6.75 V 0 Z m 0,0"
           id="path16" />
      </g>
    </g>
  </g>
  <g
     fill="#0b1320"
     fill-opacity="1"
     id="g22"
     transform="translate(-31.777344,-150.19531)">
    <g
       transform="translate(261.84286,198.4051)"
       id="g21">
      <g
         id="g20">
        <path
           d="m 14.125,-9.359375 c 2.1875,-0.984375 3.515625,-2.984375 3.515625,-5.828125 0,-4.359375 -2.765625,-6.265625 -6.78125,-6.265625 H 2 V 0 h 3.5625 v -8.75 h 5.125 L 14.234375,0 h 3.84375 z M 5.5625,-18.25 h 4.8125 c 2.390625,0 3.75,1.125 3.75,3.171875 0,2.078125 -1.328125,3.203125 -3.75,3.203125 H 5.5625 Z m 0,0"
           id="path19" />
      </g>
    </g>
  </g>
  <g
     fill="#0b1320"
     fill-opacity="1"
     id="g25"
     transform="translate(-31.777344,-150.19531)">
    <g
       transform="translate(285.7994,198.4051)"
       id="g24">
      <g
         id="g23">
        <path
           d="m 11.46875,0.359375 c 6.984375,0 10.265625,-5.203125 10.265625,-11.109375 0,-5.90625 -3.28125,-11.046875 -10.265625,-11.046875 -7,0 -10.265625,5.140625 -10.265625,11.046875 0,5.90625 3.265625,11.109375 10.265625,11.109375 z m 0,-3.203125 c -4.21875,0 -6.578125,-3.265625 -6.578125,-7.90625 0,-4.609375 2.359375,-7.875 6.578125,-7.875 4.25,0 6.59375,3.265625 6.59375,7.875 0,4.640625 -2.34375,7.90625 -6.59375,7.90625 z m 0,0"
           id="path22" />
      </g>
    </g>
  </g>
  <g
     fill="#0b1320"
     fill-opacity="1"
     id="g28"
     transform="translate(-31.777344,-150.19531)">
    <g
       transform="translate(313.63579,198.4051)"
       id="g27">
      <g
         id="g26">
        <path
           d="M 5.5625,0 V -21.453125 H 2 V 0 Z m 0,0"
           id="path25" />
      </g>
    </g>
  </g>
  <g
     fill="#0b1320"
     fill-opacity="1"
     id="g31"
     transform="translate(-31.777344,-150.19531)">
    <g
       transform="translate(326.12149,198.4051)"
       id="g30">
      <g
         id="g29">
        <path
           d="m 8.125,0 c 7.234375,0 11.171875,-3.859375 11.171875,-10.71875 0,-6.890625 -3.9375,-10.734375 -11.140625,-10.734375 H 2 V 0 Z M 5.5625,-18.25 h 2.53125 c 4.5625,0 7.625,2.15625 7.625,7.53125 0,5.828125 -3.265625,7.515625 -7.625,7.515625 H 5.5625 Z m 0,0"
           id="path28" />
      </g>
    </g>
  </g>
</svg>
