999
DXF file: C:\Users\sesa63760\Dev\_Creo\CAD\MCADID0005033_3D-CAD\drw0001_4.dxf
999
Pro/ENGINEER 2019471 by Parametric Technology Corporation
  0
SECTION
  2
HEADER
  9
$ACADVER
  1
AC1024
  9
$DWGCODEPAGE
  3
ANSI_1252
  9
$EXTMAX
 10
107.3810336601
 20
151.8674618907
 30
0.0
  9
$EXTMIN
 10
0.0
 20
0.0
 30
0.0
  9
$LIMMIN
 10
0.0
 20
0.0
  9
$LIMMAX
 10
107.3810336601
 20
151.8674618907
  9
$VIEWCTR
 10
53.69051683
 20
75.9337309454
  9
$VIEWSIZE
 40
151.8674618907
  9
$CLAYER
  8
0
  9
$LTSCALE
 40
9.8995086269
  9
$CELTYPE
  6
BYLAYER
  9
$DIMSCALE
 40
1.0
  9
$DIMASZ
 40
1.2783456388
  9
$DIMEXO
 40
1.0
  9
$DIMDLI
 40
6.8396605059
  9
$DIMEXE
 40
1.0
  9
$DIMCEN
 40
1.6199195935
  9
$DIMLFAC
 40
1.0
  9
$DIMBLK
  1
_FILLED
  9
$DIMALT
 70
0
  9
$DIMALTF
 40
0.0393700787
  9
$DIMTXT
 40
1.7896838943
  9
$DIMTOL
 70
1
  9
$DIMLIM
 70
0
  9
$DIMTFAC
 40
1.0
  9
$DIMTP
 40
0.01
  9
$DIMTM
 40
0.01
  9
$DIMGAP
 40
0.625
  9
$DIMDSEP
 70
46
  9
$AUNITS
 70
0
  9
$PDMODE
 70
3
  9
$PDSIZE
 40
0.3125
  9
$HANDSEED
  5
347
  9
$TILEMODE
 70
1
  9
$MEASUREMENT
 70
1
  9
$INSUNITS
 70
4
  0
ENDSEC
  0
SECTION
  2
CLASSES
  0
CLASS
  1
ACDBDICTIONARYWDFLT
  2
AcDbDictionaryWithDefault
  3
AutoCAD 2000
 90
0
 91
1
280
0
281
0
  0
CLASS
  1
ACDBPLACEHOLDER
  2
AcDbPlaceHolder
  3
AutoCAD 2000
 90
0
 91
1
280
0
281
0
  0
CLASS
  1
LAYOUT
  2
AcDbLayout
  3
AutoCAD 2000
 90
0
 91
0
280
0
281
0
  0
ENDSEC
  0
SECTION
  2
TABLES
  0
TABLE
  2
VPORT
  5
8
100
AcDbSymbolTable
 70
2
  0
VPORT
  5
1F4
100
AcDbSymbolTableRecord
100
AcDbViewportTableRecord
  2
*ACTIVE
 70
0
 10
0.0
 20
0.0
 11
1.0
 21
1.0
 12
53.69051683
 22
75.9337309454
 13
0.0
 23
0.0
 14
1.0
 24
1.0
 15
0.0
 25
0.0
 16
0.0
 26
0.0
 36
1.0
 17
0.0
 27
0.0
 37
0.0
 40
151.8674618907
 41
0.7070707071
 42
50.0
 43
0.0
 44
0.0
 50
0.0
 51
0.0
 71
0
 72
100
 73
1
 74
1
 75
0
 76
0
 77
0
 78
0
  0
ENDTAB
  0
TABLE
  2
LTYPE
  5
5
100
AcDbSymbolTable
 70
6
  0
LTYPE
  5
14
100
AcDbSymbolTableRecord
100
AcDbLinetypeTableRecord
  2
BYBLOCK
 70
0
  3

 72
65
 73
0
 40
0.0
  0
LTYPE
  5
15
100
AcDbSymbolTableRecord
100
AcDbLinetypeTableRecord
  2
BYLAYER
 70
0
  3

 72
65
 73
0
 40
0.0
  0
LTYPE
  5
16
100
AcDbSymbolTableRecord
100
AcDbLinetypeTableRecord
  2
CONTINUOUS
 70
64
  3
Solid line
 72
65
 73
0
 40
0.0
  0
LTYPE
  5
1F5
100
AcDbSymbolTableRecord
100
AcDbLinetypeTableRecord
  2
CENTER
 70
64
  3
____ _ ____ _ ____ _ ____ _ ____ _ ____ _ ____
 72
65
 73
4
 40
0.6
 49
0.375
 74
0
 49
-0.075
 74
0
 49
0.075
 74
0
 49
-0.075
 74
0
  0
LTYPE
  5
1F6
100
AcDbSymbolTableRecord
100
AcDbLinetypeTableRecord
  2
HIDDEN
 70
64
  3
- - - - - - - - - - - - - - - - - - - -
 72
65
 73
2
 40
0.2
 49
0.1
 74
0
 49
-0.1
 74
0
  0
LTYPE
  5
1F7
100
AcDbSymbolTableRecord
100
AcDbLinetypeTableRecord
  2
PHANTOM
 70
64
  3
_____ _ _ _____ _ _ _____ _ _ _____
 72
65
 73
6
 40
0.8
 49
0.45
 74
0
 49
-0.05
 74
0
 49
0.1
 74
0
 49
-0.05
 74
0
 49
0.1
 74
0
 49
-0.05
 74
0
  0
LTYPE
  5
1F8
100
AcDbSymbolTableRecord
100
AcDbLinetypeTableRecord
  2
DOT
 70
64
  3
. . . . . . . . . . . . . . . . . . . .
 72
65
 73
2
 40
0.2
 49
0.1
 74
0
 49
-0.1
 74
0
  0
LTYPE
  5
1F9
100
AcDbSymbolTableRecord
100
AcDbLinetypeTableRecord
  2
DASHED
 70
64
  3
- - - - - - - - - - - - - - - - - - - -
 72
65
 73
2
 40
0.2
 49
0.1
 74
0
 49
-0.1
 74
0
  0
ENDTAB
  0
TABLE
  2
LAYER
  5
2
100
AcDbSymbolTable
 70
36
  0
LAYER
  5
10
100
AcDbSymbolTableRecord
100
AcDbLayerTableRecord
  2
0
 70
0
 62
7
  6
CONTINUOUS
370
-3
390
F
  0
LAYER
  5
1FA
100
AcDbSymbolTableRecord
100
AcDbLayerTableRecord
  2
DEFAULT_1
 70
0
 62
7
  6
CENTER
370
-3
390
F
  0
LAYER
  5
1FB
100
AcDbSymbolTableRecord
100
AcDbLayerTableRecord
  2
DEFAULT_2
 70
0
 62
7
  6
HIDDEN
370
-3
390
F
  0
LAYER
  5
1FC
100
AcDbSymbolTableRecord
100
AcDbLayerTableRecord
  2
DEFAULT_3
 70
0
 62
7
  6
PHANTOM
370
-3
390
F
  0
LAYER
  5
1FD
100
AcDbSymbolTableRecord
100
AcDbLayerTableRecord
  2
00_COMPONENTS
 70
0
 62
7
  6
CONTINUOUS
370
-3
390
F
  0
LAYER
  5
1FE
100
AcDbSymbolTableRecord
100
AcDbLayerTableRecord
  2
01_1_DEFAULT_DATUMS
 70
0
 62
7
  6
CONTINUOUS
370
-3
390
F
  0
LAYER
  5
1FF
100
AcDbSymbolTableRecord
100
AcDbLayerTableRecord
  2
01_PLANES
 70
0
 62
7
  6
CONTINUOUS
370
-3
390
F
  0
LAYER
  5
200
100
AcDbSymbolTableRecord
100
AcDbLayerTableRecord
  2
02_COORD_SYS
 70
0
 62
7
  6
CONTINUOUS
370
-3
390
F
  0
LAYER
  5
201
100
AcDbSymbolTableRecord
100
AcDbLayerTableRecord
  2
03_AXES
 70
0
 62
7
  6
CONTINUOUS
370
-3
390
F
  0
LAYER
  5
202
100
AcDbSymbolTableRecord
100
AcDbLayerTableRecord
  2
04_POINTS
 70
0
 62
7
  6
CONTINUOUS
370
-3
390
F
  0
LAYER
  5
203
100
AcDbSymbolTableRecord
100
AcDbLayerTableRecord
  2
05_CURVES
 70
0
 62
7
  6
CONTINUOUS
370
-3
390
F
  0
LAYER
  5
204
100
AcDbSymbolTableRecord
100
AcDbLayerTableRecord
  2
06_SURFS
 70
0
 62
7
  6
CONTINUOUS
370
-3
390
F
  0
LAYER
  5
205
100
AcDbSymbolTableRecord
100
AcDbLayerTableRecord
  2
07_COSMETICS
 70
0
 62
7
  6
CONTINUOUS
370
-3
390
F
  0
LAYER
  5
206
100
AcDbSymbolTableRecord
100
AcDbLayerTableRecord
  2
10_NOTES
 70
0
 62
7
  6
CONTINUOUS
370
-3
390
F
  0
LAYER
  5
207
100
AcDbSymbolTableRecord
100
AcDbLayerTableRecord
  2
11_NOTES_PUB
 70
0
 62
7
  6
CONTINUOUS
370
-3
390
F
  0
LAYER
  5
208
100
AcDbSymbolTableRecord
100
AcDbLayerTableRecord
  2
13_REF_GTOL
 70
0
 62
7
  6
CONTINUOUS
370
-3
390
F
  0
LAYER
  5
209
100
AcDbSymbolTableRecord
100
AcDbLayerTableRecord
  2
16_MISC
 70
0
 62
7
  6
CONTINUOUS
370
-3
390
F
  0
LAYER
  5
20A
100
AcDbSymbolTableRecord
100
AcDbLayerTableRecord
  2
17_NO_PRINT
 70
0
 62
7
  6
CONTINUOUS
370
-3
390
F
  0
LAYER
  5
20B
100
AcDbSymbolTableRecord
100
AcDbLayerTableRecord
  2
18_DATUM_CAMS_JOINTS
 70
0
 62
7
  6
CONTINUOUS
370
-3
390
F
  0
LAYER
  5
20C
100
AcDbSymbolTableRecord
100
AcDbLayerTableRecord
  2
19_DATUM_FUNCTIONAL
 70
0
 62
7
  6
CONTINUOUS
370
-3
390
F
  0
LAYER
  5
20D
100
AcDbSymbolTableRecord
100
AcDbLayerTableRecord
  2
20_DATUM_KINEMATIC_SCHEME
 70
0
 62
7
  6
CONTINUOUS
370
-3
390
F
  0
ENDTAB
  0
TABLE
  2
STYLE
  5
3
100
AcDbSymbolTable
 70
1
  0
STYLE
  5
11
100
AcDbSymbolTableRecord
100
AcDbTextStyleTableRecord
  2
STANDARD
 70
0
 40
0.0
 41
1.0
 50
0.0
 71
0
 42
0.2
  3
ARIAL.TTF
  4

  0
STYLE
  5
20E
100
AcDbSymbolTableRecord
100
AcDbTextStyleTableRecord
  2
TEXTSTYLE_1
 70
0
 40
0.0
 41
0.8
 50
0.0
 71
0
 42
0.2
  3
gdt
  4

  0
ENDTAB
  0
TABLE
  2
VIEW
  5
6
100
AcDbSymbolTable
 70
0
  0
ENDTAB
  0
TABLE
  2
UCS
  5
7
100
AcDbSymbolTable
 70
0
  0
ENDTAB
  0
TABLE
  2
APPID
  5
9
100
AcDbSymbolTable
 70
1
  0
APPID
  5
20F
100
AcDbSymbolTableRecord
100
AcDbRegAppTableRecord
  2
ACAD
 70
0
  0
ENDTAB
  0
TABLE
  2
BLOCK_RECORD
  5
1
100
AcDbSymbolTable
 70
0
  0
BLOCK_RECORD
  5
210
100
AcDbSymbolTableRecord
100
AcDbBlockTableRecord
  2
*Model_Space
  0
BLOCK_RECORD
  5
211
100
AcDbSymbolTableRecord
100
AcDbBlockTableRecord
  2
*Paper_Space
  0
BLOCK_RECORD
  5
212
100
AcDbSymbolTableRecord
100
AcDbBlockTableRecord
  2
_FILLED
  0
ENDTAB
  0
TABLE
  2
DIMSTYLE
  5
A
100
AcDbSymbolTable
 70
1
100
AcDbDimStyleTable
 71
0
  0
DIMSTYLE
105
213
100
AcDbSymbolTableRecord
100
AcDbDimStyleTableRecord
  2
STANDARD
 70
0
  3

  4

 40
1.0
 41
1.2783456388
 42
1.0
 43
0.38
 44
1.0
 45
0.0
 46
0.0
 47
0.01
 48
0.01
140
1.7896838943
141
0.09
142
0.0
143
25.4
144
1.0
145
0.0
146
1.0
147
0.625
 71
1
 72
0
 73
0
 74
0
 75
0
 76
0
 77
1
 78
8
 79
2
170
0
171
1
172
0
173
0
174
0
175
0
176
0
177
0
178
0
270
2
179
2
271
2
272
2
273
2
274
2
275
0
280
0
281
0
282
0
283
1
284
8
285
0
286
0
287
3
288
0
340
11
278
46
341
212
342
212
343
212
344
212
  0
ENDTAB
  0
ENDSEC
  0
SECTION
  2
BLOCKS
  0
BLOCK
  5
20
100
AcDbEntity
  8
0
100
AcDbBlockBegin
  2
*Model_Space
 70
0
 10
0.0
 20
0.0
 30
0.0
  3
*Model_Space
  1

  0
ENDBLK
  5
21
100
AcDbEntity
  8
0
100
AcDbBlockEnd
  0
BLOCK
  5
1C
100
AcDbEntity
  8
0
100
AcDbBlockBegin
  2
*Paper_Space
 70
0
 10
0.0
 20
0.0
 30
0.0
  3
*Paper_Space
  1

  0
ENDBLK
  5
1D
100
AcDbEntity
  8
0
100
AcDbBlockEnd
  0
BLOCK
  5
214
100
AcDbEntity
  8
0
100
AcDbBlockBegin
  2
_FILLED
 70
64
 10
0.0
 20
0.0
  3
_FILLED
  1

  0
SOLID
  5
215
100
AcDbEntity
  8
0
  6
BYBLOCK
 62
0
100
AcDbTrace
 10
0.0
 20
0.0
 11
-1.0
 21
0.25
 12
-1.0
 22
-0.25
 13
-1.0
 23
-0.25
  0
ENDBLK
  5
216
100
AcDbEntity
  8
0
  6
BYBLOCK
 62
0
100
AcDbBlockEnd
  0
ENDSEC
  0
SECTION
  2
ENTITIES
  0
LINE
  5
217
100
AcDbEntity
  8
0
100
AcDbLine
 62
7
  6
BYLAYER
 10
53.1010248323
 20
13.1258183437
 11
52.2250787936
 21
12.9447960731
  0
LINE
  5
218
100
AcDbEntity
  8
0
100
AcDbLine
 62
7
  6
BYLAYER
 10
58.2661879897
 20
10.8742307474
 11
54.6129076408
 21
10.8742307474
  0
LINE
  5
219
100
AcDbEntity
  8
0
100
AcDbLine
 62
7
  6
BYLAYER
 10
58.2661879897
 20
11.5187388915
 11
54.6129076408
 21
11.5187388915
  0
LINE
  5
21A
100
AcDbEntity
  8
0
100
AcDbLine
 62
7
  6
BYLAYER
 10
50.6346489771
 20
12.3498866875
 11
52.0899418401
 21
12.3498866875
  0
LINE
  5
21B
100
AcDbEntity
  8
0
100
AcDbLine
 62
7
  6
BYLAYER
 10
61.0908080374
 20
12.3498866875
 11
64.5346489771
 21
12.3477267875
  0
LINE
  5
21C
100
AcDbEntity
  8
0
100
AcDbLine
 62
7
  6
BYLAYER
 10
64.5346489771
 20
12.9447960731
 11
60.9564448912
 21
12.9447960731
  0
LINE
  5
21D
100
AcDbEntity
  8
0
100
AcDbLine
 62
7
  6
BYLAYER
 10
52.2250787936
 20
12.9447960731
 11
50.6346489771
 21
12.9447960731
  0
LINE
  5
21E
100
AcDbEntity
  8
0
100
AcDbLine
 62
7
  6
BYLAYER
 10
48.5846489771
 20
14.2820876377
 11
62.4714998169
 21
14.2820876377
  0
LINE
  5
21F
100
AcDbEntity
  8
0
100
AcDbLine
 62
7
  6
BYLAYER
 10
62.4714998169
 20
15.1981440028
 11
63.5346489771
 21
15.1981440028
  0
LINE
  5
220
100
AcDbEntity
  8
0
100
AcDbLine
 62
7
  6
BYLAYER
 10
48.4187609216
 20
15.298144004
 11
48.5846489771
 21
15.298144004
  0
LINE
  5
221
100
AcDbEntity
  8
0
100
AcDbLine
 62
7
  6
BYLAYER
 10
62.4714998169
 20
16.3627267875
 11
64.5346489771
 21
16.3627267875
  0
LINE
  5
222
100
AcDbEntity
  8
0
100
AcDbLine
 62
7
  6
BYLAYER
 10
60.9564448912
 20
12.9447960731
 11
60.0849308912
 21
13.1258183435
  0
LINE
  5
223
100
AcDbEntity
  8
0
100
AcDbLine
 62
7
  6
BYLAYER
 10
48.4187609216
 20
19.4757407624
 11
48.5846489771
 21
19.4757407624
  0
LINE
  5
224
100
AcDbEntity
  8
0
100
AcDbLine
 62
7
  6
BYLAYER
 10
48.4187609216
 20
21.1972610401
 11
48.5846489771
 21
21.1972610401
  0
LINE
  5
225
100
AcDbEntity
  8
0
100
AcDbLine
 62
7
  6
BYLAYER
 10
47.5746489771
 20
21.4857267875
 11
48.4187609216
 21
21.4857267875
  0
LINE
  5
226
100
AcDbEntity
  8
0
100
AcDbLine
 62
7
  6
BYLAYER
 10
47.6346489771
 20
21.6607267875
 11
45.6346489771
 21
21.6607267875
  0
LINE
  5
227
100
AcDbEntity
  8
0
100
AcDbLine
 62
7
  6
BYLAYER
 10
47.6346489771
 20
21.7857267875
 11
48.4187609216
 21
21.7857267875
  0
LINE
  5
228
100
AcDbEntity
  8
0
100
AcDbLine
 62
7
  6
BYLAYER
 10
47.6346489771
 20
22.2357267875
 11
48.4187609216
 21
22.2357267875
  0
LINE
  5
229
100
AcDbEntity
  8
0
100
AcDbLine
 62
7
  6
BYLAYER
 10
45.6346489771
 20
22.3607267875
 11
47.6346489771
 21
22.3607267875
  0
LINE
  5
22A
100
AcDbEntity
  8
0
100
AcDbLine
 62
7
  6
BYLAYER
 10
47.5746489771
 20
22.5357267875
 11
48.4187609216
 21
22.5357267875
  0
LINE
  5
22B
100
AcDbEntity
  8
0
100
AcDbLine
 62
7
  6
BYLAYER
 10
49.3846489771
 20
25.0257267875
 11
61.0846489771
 21
25.0257267875
  0
LINE
  5
22C
100
AcDbEntity
  8
0
100
AcDbLine
 62
7
  6
BYLAYER
 10
53.7235609026
 20
25.6646387129
 11
58.0457370517
 21
25.6646387129
  0
LINE
  5
22D
100
AcDbEntity
  8
0
100
AcDbLine
 62
7
  6
BYLAYER
 10
58.0457370517
 20
26.6146387129
 11
58.6235609026
 21
26.6146387129
  0
LINE
  5
22E
100
AcDbEntity
  8
0
100
AcDbLine
 62
7
  6
BYLAYER
 10
48.4187609216
 20
27.6560200702
 11
45.6346489771
 21
27.6560200702
  0
LINE
  5
22F
100
AcDbEntity
  8
0
100
AcDbLine
 62
7
  6
BYLAYER
 10
58.6235609026
 20
28.036814862
 11
58.0457370517
 21
28.036814862
  0
LINE
  5
230
100
AcDbEntity
  8
0
100
AcDbLine
 62
7
  6
BYLAYER
 10
45.6346489771
 20
28.3560200702
 11
48.4187609216
 21
28.3560200702
  0
LINE
  5
231
100
AcDbEntity
  8
0
100
AcDbLine
 62
7
  6
BYLAYER
 10
58.0457370517
 20
28.986814862
 11
53.7235609026
 21
28.986814862
  0
LINE
  5
232
100
AcDbEntity
  8
0
100
AcDbLine
 62
7
  6
BYLAYER
 10
53.7235609026
 20
29.4746387129
 11
58.0457370517
 21
29.4746387129
  0
LINE
  5
233
100
AcDbEntity
  8
0
100
AcDbLine
 62
7
  6
BYLAYER
 10
58.0457370517
 20
30.4246387129
 11
58.6235609026
 21
30.4246387129
  0
LINE
  5
234
100
AcDbEntity
  8
0
100
AcDbLine
 62
7
  6
BYLAYER
 10
58.6235609026
 20
31.846814862
 11
58.0457370517
 21
31.846814862
  0
LINE
  5
235
100
AcDbEntity
  8
0
100
AcDbLine
 62
7
  6
BYLAYER
 10
58.6235609026
 20
26.0741286446
 11
59.5457370517
 21
25.7384839756
  0
LINE
  5
236
100
AcDbEntity
  8
0
100
AcDbLine
 62
7
  6
BYLAYER
 10
58.0457370517
 20
32.796814862
 11
53.7235609026
 21
32.796814862
  0
LINE
  5
237
100
AcDbEntity
  8
0
100
AcDbLine
 62
7
  6
BYLAYER
 10
53.7235609026
 20
33.2846387129
 11
58.0457370517
 21
33.2846387129
  0
LINE
  5
238
100
AcDbEntity
  8
0
100
AcDbLine
 62
7
  6
BYLAYER
 10
48.4187609216
 20
33.651313353
 11
45.6346489771
 21
33.651313353
  0
LINE
  5
239
100
AcDbEntity
  8
0
100
AcDbLine
 62
7
  6
BYLAYER
 10
58.0457370517
 20
34.2346387129
 11
58.6235609026
 21
34.2346387129
  0
LINE
  5
23A
100
AcDbEntity
  8
0
100
AcDbLine
 62
7
  6
BYLAYER
 10
45.6346489771
 20
34.351313353
 11
48.4187609216
 21
34.351313353
  0
LINE
  5
23B
100
AcDbEntity
  8
0
100
AcDbLine
 62
7
  6
BYLAYER
 10
58.6235609026
 20
35.656814862
 11
58.0457370517
 21
35.656814862
  0
LINE
  5
23C
100
AcDbEntity
  8
0
100
AcDbLine
 62
7
  6
BYLAYER
 10
58.0457370517
 20
36.606814862
 11
53.7235609026
 21
36.606814862
  0
LINE
  5
23D
100
AcDbEntity
  8
0
100
AcDbLine
 62
7
  6
BYLAYER
 10
58.6235609026
 20
29.8841286446
 11
59.5457370517
 21
29.5484839756
  0
LINE
  5
23E
100
AcDbEntity
  8
0
100
AcDbLine
 62
7
  6
BYLAYER
 10
53.7235609026
 20
37.0946387129
 11
58.0457370517
 21
37.0946387129
  0
LINE
  5
23F
100
AcDbEntity
  8
0
100
AcDbLine
 62
7
  6
BYLAYER
 10
58.0457370517
 20
38.0446387129
 11
58.6235609026
 21
38.0446387129
  0
LINE
  5
240
100
AcDbEntity
  8
0
100
AcDbLine
 62
7
  6
BYLAYER
 10
58.6235609026
 20
39.466814862
 11
58.0457370517
 21
39.466814862
  0
LINE
  5
241
100
AcDbEntity
  8
0
100
AcDbLine
 62
7
  6
BYLAYER
 10
48.4187609216
 20
39.6435955596
 11
45.6346489771
 21
39.6435955596
  0
LINE
  5
242
100
AcDbEntity
  8
0
100
AcDbLine
 62
7
  6
BYLAYER
 10
45.6346489771
 20
40.3435955596
 11
48.4187609216
 21
40.3435955596
  0
LINE
  5
243
100
AcDbEntity
  8
0
100
AcDbLine
 62
7
  6
BYLAYER
 10
58.0457370517
 20
40.416814862
 11
53.7235609026
 21
40.416814862
  0
LINE
  5
244
100
AcDbEntity
  8
0
100
AcDbLine
 62
7
  6
BYLAYER
 10
53.7235609026
 20
40.9046387129
 11
58.0457370517
 21
40.9046387129
  0
LINE
  5
245
100
AcDbEntity
  8
0
100
AcDbLine
 62
7
  6
BYLAYER
 10
58.6235609026
 20
33.6941286446
 11
59.5457370517
 21
33.3584839756
  0
LINE
  5
246
100
AcDbEntity
  8
0
100
AcDbLine
 62
7
  6
BYLAYER
 10
58.6235609026
 20
37.5041286446
 11
59.5457370517
 21
37.1684839756
  0
LINE
  5
247
100
AcDbEntity
  8
0
100
AcDbLine
 62
7
  6
BYLAYER
 10
58.0457370517
 20
41.8546387129
 11
58.6235609026
 21
41.8546387129
  0
LINE
  5
248
100
AcDbEntity
  8
0
100
AcDbLine
 62
7
  6
BYLAYER
 10
58.6235609026
 20
43.276814862
 11
58.0457370517
 21
43.276814862
  0
LINE
  5
249
100
AcDbEntity
  8
0
100
AcDbLine
 62
7
  6
BYLAYER
 10
58.0457370517
 20
44.226814862
 11
53.7235609026
 21
44.226814862
  0
LINE
  5
24A
100
AcDbEntity
  8
0
100
AcDbLine
 62
7
  6
BYLAYER
 10
53.7235609026
 20
44.7146387129
 11
58.0457370517
 21
44.7146387129
  0
LINE
  5
24B
100
AcDbEntity
  8
0
100
AcDbLine
 62
7
  6
BYLAYER
 10
58.6235609026
 20
41.3141286446
 11
59.5457370517
 21
40.9784839756
  0
LINE
  5
24C
100
AcDbEntity
  8
0
100
AcDbLine
 62
7
  6
BYLAYER
 10
58.0457370517
 20
45.6646387129
 11
58.6235609026
 21
45.6646387129
  0
LINE
  5
24D
100
AcDbEntity
  8
0
100
AcDbLine
 62
7
  6
BYLAYER
 10
48.4187609216
 20
45.6651084111
 11
45.6346489771
 21
45.6651084111
  0
LINE
  5
24E
100
AcDbEntity
  8
0
100
AcDbLine
 62
7
  6
BYLAYER
 10
45.6346489771
 20
46.3651084111
 11
48.4187609216
 21
46.3651084111
  0
LINE
  5
24F
100
AcDbEntity
  8
0
100
AcDbLine
 62
7
  6
BYLAYER
 10
58.6235609026
 20
47.086814862
 11
58.0457370517
 21
47.086814862
  0
LINE
  5
250
100
AcDbEntity
  8
0
100
AcDbLine
 62
7
  6
BYLAYER
 10
58.0457370517
 20
48.036814862
 11
53.7235609026
 21
48.036814862
  0
LINE
  5
251
100
AcDbEntity
  8
0
100
AcDbLine
 62
7
  6
BYLAYER
 10
61.0846489771
 20
48.6757267875
 11
49.3846489771
 21
48.6757267875
  0
LINE
  5
252
100
AcDbEntity
  8
0
100
AcDbLine
 62
7
  6
BYLAYER
 10
58.6235609026
 20
45.1241286446
 11
59.5457370517
 21
44.7884839756
  0
LINE
  5
253
100
AcDbEntity
  8
0
100
AcDbLine
 62
7
  6
BYLAYER
 10
48.5846489771
 20
56.8205131686
 11
48.4187609216
 21
56.8205131686
  0
LINE
  5
254
100
AcDbEntity
  8
0
100
AcDbLine
 62
7
  6
BYLAYER
 10
48.5846489771
 20
57.2107267875
 11
48.4346489771
 21
57.2107267875
  0
LINE
  5
255
100
AcDbEntity
  8
0
100
AcDbLine
 62
7
  6
BYLAYER
 10
48.4346489771
 20
59.210726791
 11
48.5846489771
 21
59.210726791
  0
LINE
  5
256
100
AcDbEntity
  8
0
100
AcDbLine
 62
7
  6
BYLAYER
 10
49.3846489771
 20
60.5183929955
 11
61.0846489771
 21
60.5183929955
  0
LINE
  5
257
100
AcDbEntity
  8
0
100
AcDbLine
 62
7
  6
BYLAYER
 10
53.7235609026
 20
61.1573049209
 11
58.0457370517
 21
61.1573049209
  0
LINE
  5
258
100
AcDbEntity
  8
0
100
AcDbLine
 62
7
  6
BYLAYER
 10
58.0457370517
 20
62.1073049209
 11
58.6235609026
 21
62.107304921
  0
LINE
  5
259
100
AcDbEntity
  8
0
100
AcDbLine
 62
7
  6
BYLAYER
 10
45.6346489771
 20
21.6607267875
 11
45.6346489771
 21
22.3607267875
  0
LINE
  5
25A
100
AcDbEntity
  8
0
100
AcDbLine
 62
7
  6
BYLAYER
 10
45.6346489771
 20
27.6560200702
 11
45.6346489771
 21
28.3560200702
  0
LINE
  5
25B
100
AcDbEntity
  8
0
100
AcDbLine
 62
7
  6
BYLAYER
 10
45.6346489771
 20
33.651313353
 11
45.6346489771
 21
34.351313353
  0
LINE
  5
25C
100
AcDbEntity
  8
0
100
AcDbLine
 62
7
  6
BYLAYER
 10
45.6346489771
 20
39.6435955596
 11
45.6346489771
 21
40.3435955596
  0
LINE
  5
25D
100
AcDbEntity
  8
0
100
AcDbLine
 62
7
  6
BYLAYER
 10
45.6346489771
 20
45.6651084111
 11
45.6346489771
 21
46.3651084111
  0
LINE
  5
25E
100
AcDbEntity
  8
0
100
AcDbLine
 62
7
  6
BYLAYER
 10
45.6346489771
 20
103.5023154648
 11
45.6346489771
 21
104.2023154648
  0
LINE
  5
25F
100
AcDbEntity
  8
0
100
AcDbLine
 62
7
  6
BYLAYER
 10
45.6346489771
 20
107.6931130256
 11
45.6346489771
 21
108.3931130256
  0
LINE
  5
260
100
AcDbEntity
  8
0
100
AcDbLine
 62
7
  6
BYLAYER
 10
45.6346489771
 20
111.9075874088
 11
45.6346489771
 21
112.6075874088
  0
LINE
  5
261
100
AcDbEntity
  8
0
100
AcDbLine
 62
7
  6
BYLAYER
 10
45.6346489771
 20
116.0983849696
 11
45.6346489771
 21
116.7983849696
  0
LINE
  5
262
100
AcDbEntity
  8
0
100
AcDbLine
 62
7
  6
BYLAYER
 10
45.6346489771
 20
120.3128593528
 11
45.6346489771
 21
121.0128593528
  0
LINE
  5
263
100
AcDbEntity
  8
0
100
AcDbLine
 62
7
  6
BYLAYER
 10
45.6346489771
 20
124.5036569136
 11
45.6346489771
 21
125.2036569136
  0
LINE
  5
264
100
AcDbEntity
  8
0
100
AcDbLine
 62
7
  6
BYLAYER
 10
58.6235609026
 20
63.52948107
 11
58.0457370517
 21
63.52948107
  0
LINE
  5
265
100
AcDbEntity
  8
0
100
AcDbLine
 62
7
  6
BYLAYER
 10
48.5846489771
 20
63.8166265957
 11
48.4187609216
 21
63.8166265957
  0
LINE
  5
266
100
AcDbEntity
  8
0
100
AcDbLine
 62
7
  6
BYLAYER
 10
48.5846489771
 20
64.1791077793
 11
48.4346489771
 21
64.1791077793
  0
LINE
  5
267
100
AcDbEntity
  8
0
100
AcDbLine
 62
7
  6
BYLAYER
 10
58.0457370517
 20
64.47948107
 11
53.7235609026
 21
64.47948107
  0
LINE
  5
268
100
AcDbEntity
  8
0
100
AcDbLine
 62
7
  6
BYLAYER
 10
53.7235609026
 20
64.9673049209
 11
58.0457370517
 21
64.9673049209
  0
LINE
  5
269
100
AcDbEntity
  8
0
100
AcDbLine
 62
7
  6
BYLAYER
 10
58.0457370517
 20
65.9173049209
 11
58.6235609026
 21
65.9173049209
  0
LINE
  5
26A
100
AcDbEntity
  8
0
100
AcDbLine
 62
7
  6
BYLAYER
 10
48.4346489771
 20
66.1791077828
 11
48.5846489771
 21
66.1791077828
  0
LINE
  5
26B
100
AcDbEntity
  8
0
100
AcDbLine
 62
7
  6
BYLAYER
 10
48.5846489771
 20
66.3756412866
 11
48.4187609216
 21
66.3756412862
  0
LINE
  5
26C
100
AcDbEntity
  8
0
100
AcDbLine
 62
7
  6
BYLAYER
 10
58.6235609026
 20
67.33948107
 11
58.0457370517
 21
67.33948107
  0
LINE
  5
26D
100
AcDbEntity
  8
0
100
AcDbLine
 62
7
  6
BYLAYER
 10
58.6235609026
 20
61.5667948526
 11
59.5457370517
 21
61.2311501836
  0
LINE
  5
26E
100
AcDbEntity
  8
0
100
AcDbLine
 62
7
  6
BYLAYER
 10
58.6235609026
 20
65.3767948526
 11
59.5457370517
 21
65.0411501836
  0
LINE
  5
26F
100
AcDbEntity
  8
0
100
AcDbLine
 62
7
  6
BYLAYER
 10
47.5746489771
 20
21.4857267875
 11
47.5746489771
 21
21.6607267875
  0
LINE
  5
270
100
AcDbEntity
  8
0
100
AcDbLine
 62
7
  6
BYLAYER
 10
47.5746489771
 20
22.3607267875
 11
47.5746489771
 21
22.5357267875
  0
LINE
  5
271
100
AcDbEntity
  8
0
100
AcDbLine
 62
7
  6
BYLAYER
 10
47.5746489771
 20
120.1357267875
 11
47.5746489771
 21
120.3128593528
  0
LINE
  5
272
100
AcDbEntity
  8
0
100
AcDbLine
 62
7
  6
BYLAYER
 10
47.5746489771
 20
121.0128593528
 11
47.5746489771
 21
121.1857267875
  0
LINE
  5
273
100
AcDbEntity
  8
0
100
AcDbLine
 62
7
  6
BYLAYER
 10
47.5746489771
 20
124.3357267875
 11
47.5746489771
 21
124.5036569136
  0
LINE
  5
274
100
AcDbEntity
  8
0
100
AcDbLine
 62
7
  6
BYLAYER
 10
47.5746489771
 20
125.2036569136
 11
47.5746489771
 21
125.3857267875
  0
LINE
  5
275
100
AcDbEntity
  8
0
100
AcDbLine
 62
7
  6
BYLAYER
 10
47.6346489771
 20
21.4857267875
 11
47.6346489771
 21
22.5357267875
  0
LINE
  5
276
100
AcDbEntity
  8
0
100
AcDbLine
 62
7
  6
BYLAYER
 10
47.6346489771
 20
120.1357267875
 11
47.6346489771
 21
121.1857267875
  0
LINE
  5
277
100
AcDbEntity
  8
0
100
AcDbLine
 62
7
  6
BYLAYER
 10
47.6346489771
 20
124.3357267875
 11
47.6346489771
 21
125.3857267875
  0
LINE
  5
278
100
AcDbEntity
  8
0
100
AcDbLine
 62
7
  6
BYLAYER
 10
48.4187609216
 20
15.298144004
 11
48.4187609216
 21
133.4107267875
  0
LINE
  5
279
100
AcDbEntity
  8
0
100
AcDbLine
 62
7
  6
BYLAYER
 10
48.4346489771
 20
57.2107267875
 11
48.4346489771
 21
59.210726791
  0
LINE
  5
27A
100
AcDbEntity
  8
0
100
AcDbLine
 62
7
  6
BYLAYER
 10
48.4346489771
 20
64.1791077793
 11
48.4346489771
 21
66.1791077828
  0
LINE
  5
27B
100
AcDbEntity
  8
0
100
AcDbLine
 62
7
  6
BYLAYER
 10
48.4346489771
 20
85.2475721842
 11
48.4346489771
 21
87.2475721877
  0
LINE
  5
27C
100
AcDbEntity
  8
0
100
AcDbLine
 62
7
  6
BYLAYER
 10
48.4346489771
 20
92.215953176
 11
48.4346489771
 21
94.2159531796
  0
LINE
  5
27D
100
AcDbEntity
  8
0
100
AcDbLine
 62
7
  6
BYLAYER
 10
48.5846489771
 20
14.2820876377
 11
48.5846489771
 21
134.3826915946
  0
LINE
  5
27E
100
AcDbEntity
  8
0
100
AcDbLine
 62
7
  6
BYLAYER
 10
49.3846489771
 20
84.1683929955
 11
49.3846489771
 21
60.5183929955
  0
LINE
  5
27F
100
AcDbEntity
  8
0
100
AcDbLine
 62
7
  6
BYLAYER
 10
49.3846489771
 20
48.6757267875
 11
49.3846489771
 21
25.0257267875
  0
LINE
  5
280
100
AcDbEntity
  8
0
100
AcDbLine
 62
7
  6
BYLAYER
 10
50.6346489771
 20
14.2820876377
 11
50.6346489771
 21
12.9447960731
  0
LINE
  5
281
100
AcDbEntity
  8
0
100
AcDbLine
 62
7
  6
BYLAYER
 10
50.6346489771
 20
12.3498866875
 11
50.6346489771
 21
12.9028085978
  0
LINE
  5
282
100
AcDbEntity
  8
0
100
AcDbLine
 62
7
  6
BYLAYER
 10
50.6346489771
 20
134.3826915946
 11
50.6346489771
 21
140.0638097119
  0
LINE
  5
283
100
AcDbEntity
  8
0
100
AcDbLine
 62
7
  6
BYLAYER
 10
51.0654952337
 20
14.2820876377
 11
51.0654952337
 21
25.0257267875
  0
LINE
  5
284
100
AcDbEntity
  8
0
100
AcDbLine
 62
7
  6
BYLAYER
 10
51.0654952337
 20
48.6757267875
 11
51.0654952337
 21
60.5183929955
  0
LINE
  5
285
100
AcDbEntity
  8
0
100
AcDbLine
 62
7
  6
BYLAYER
 10
51.0654952337
 20
84.1683929955
 11
51.0654952337
 21
134.3826915946
  0
LINE
  5
286
100
AcDbEntity
  8
0
100
AcDbLine
 62
7
  6
BYLAYER
 10
59.5457370517
 20
83.4556358074
 11
58.6235609026
 21
83.1199911384
  0
LINE
  5
287
100
AcDbEntity
  8
0
100
AcDbLine
 62
7
  6
BYLAYER
 10
58.0457370517
 20
68.28948107
 11
53.7235609026
 21
68.28948107
  0
LINE
  5
288
100
AcDbEntity
  8
0
100
AcDbLine
 62
7
  6
BYLAYER
 10
53.7235609026
 20
68.7773049209
 11
58.0457370517
 21
68.7773049209
  0
LINE
  5
289
100
AcDbEntity
  8
0
100
AcDbLine
 62
7
  6
BYLAYER
 10
58.0457370517
 20
69.7273049209
 11
58.6235609026
 21
69.7273049209
  0
LINE
  5
28A
100
AcDbEntity
  8
0
100
AcDbLine
 62
7
  6
BYLAYER
 10
58.6235609026
 20
71.14948107
 11
58.0457370517
 21
71.14948107
  0
LINE
  5
28B
100
AcDbEntity
  8
0
100
AcDbLine
 62
7
  6
BYLAYER
 10
58.6235609026
 20
69.1867948526
 11
59.5457370517
 21
68.8511501836
  0
LINE
  5
28C
100
AcDbEntity
  8
0
100
AcDbLine
 62
7
  6
BYLAYER
 10
51.6346489771
 20
140.0638097119
 11
51.6346489771
 21
134.5757267875
  0
LINE
  5
28D
100
AcDbEntity
  8
0
100
AcDbLine
 62
7
  6
BYLAYER
 10
53.2846489771
 20
129.2757267875
 11
53.2846489772
 21
101.8757267875
  0
LINE
  5
28E
100
AcDbEntity
  8
0
100
AcDbLine
 62
7
  6
BYLAYER
 10
53.7235609026
 20
83.52948107
 11
53.7235609026
 21
82.7477945848
  0
LINE
  5
28F
100
AcDbEntity
  8
0
100
AcDbLine
 62
7
  6
BYLAYER
 10
53.7235609026
 20
80.9889914062
 11
53.7235609026
 21
80.2073049209
  0
LINE
  5
290
100
AcDbEntity
  8
0
100
AcDbLine
 62
7
  6
BYLAYER
 10
53.7235609026
 20
79.71948107
 11
53.7235609026
 21
78.9377945848
  0
LINE
  5
291
100
AcDbEntity
  8
0
100
AcDbLine
 62
7
  6
BYLAYER
 10
53.7235609026
 20
77.1789914062
 11
53.7235609026
 21
76.3973049209
  0
LINE
  5
292
100
AcDbEntity
  8
0
100
AcDbLine
 62
7
  6
BYLAYER
 10
53.7235609026
 20
75.90948107
 11
53.7235609026
 21
75.1277945848
  0
LINE
  5
293
100
AcDbEntity
  8
0
100
AcDbLine
 62
7
  6
BYLAYER
 10
53.7235609026
 20
73.3689914062
 11
53.7235609026
 21
72.5873049209
  0
LINE
  5
294
100
AcDbEntity
  8
0
100
AcDbLine
 62
7
  6
BYLAYER
 10
53.7235609026
 20
72.09948107
 11
53.7235609026
 21
71.3177945848
  0
LINE
  5
295
100
AcDbEntity
  8
0
100
AcDbLine
 62
7
  6
BYLAYER
 10
53.7235609026
 20
69.5589914062
 11
53.7235609026
 21
68.7773049209
  0
LINE
  5
296
100
AcDbEntity
  8
0
100
AcDbLine
 62
7
  6
BYLAYER
 10
53.7235609026
 20
68.28948107
 11
53.7235609026
 21
67.5077945848
  0
LINE
  5
297
100
AcDbEntity
  8
0
100
AcDbLine
 62
7
  6
BYLAYER
 10
53.7235609026
 20
65.7489914062
 11
53.7235609026
 21
64.9673049209
  0
LINE
  5
298
100
AcDbEntity
  8
0
100
AcDbLine
 62
7
  6
BYLAYER
 10
53.7235609026
 20
64.47948107
 11
53.7235609026
 21
63.6977945848
  0
LINE
  5
299
100
AcDbEntity
  8
0
100
AcDbLine
 62
7
  6
BYLAYER
 10
53.7235609026
 20
61.9389914062
 11
53.7235609026
 21
61.1573049209
  0
LINE
  5
29A
100
AcDbEntity
  8
0
100
AcDbLine
 62
7
  6
BYLAYER
 10
53.7235609026
 20
48.036814862
 11
53.7235609026
 21
47.2551283768
  0
LINE
  5
29B
100
AcDbEntity
  8
0
100
AcDbLine
 62
7
  6
BYLAYER
 10
53.7235609026
 20
45.4963251982
 11
53.7235609026
 21
44.7146387129
  0
LINE
  5
29C
100
AcDbEntity
  8
0
100
AcDbLine
 62
7
  6
BYLAYER
 10
53.7235609026
 20
44.226814862
 11
53.7235609026
 21
43.4451283768
  0
LINE
  5
29D
100
AcDbEntity
  8
0
100
AcDbLine
 62
7
  6
BYLAYER
 10
53.7235609026
 20
41.6863251982
 11
53.7235609026
 21
40.9046387129
  0
LINE
  5
29E
100
AcDbEntity
  8
0
100
AcDbLine
 62
7
  6
BYLAYER
 10
53.7235609026
 20
40.416814862
 11
53.7235609026
 21
39.6351283768
  0
LINE
  5
29F
100
AcDbEntity
  8
0
100
AcDbLine
 62
7
  6
BYLAYER
 10
53.7235609026
 20
37.8763251982
 11
53.7235609026
 21
37.0946387129
  0
LINE
  5
2A0
100
AcDbEntity
  8
0
100
AcDbLine
 62
7
  6
BYLAYER
 10
53.7235609026
 20
36.606814862
 11
53.7235609026
 21
35.8251283768
  0
LINE
  5
2A1
100
AcDbEntity
  8
0
100
AcDbLine
 62
7
  6
BYLAYER
 10
53.7235609026
 20
34.0663251982
 11
53.7235609026
 21
33.2846387129
  0
LINE
  5
2A2
100
AcDbEntity
  8
0
100
AcDbLine
 62
7
  6
BYLAYER
 10
53.7235609026
 20
32.796814862
 11
53.7235609026
 21
32.0151283768
  0
LINE
  5
2A3
100
AcDbEntity
  8
0
100
AcDbLine
 62
7
  6
BYLAYER
 10
53.7235609026
 20
30.2563251982
 11
53.7235609026
 21
29.4746387129
  0
LINE
  5
2A4
100
AcDbEntity
  8
0
100
AcDbLine
 62
7
  6
BYLAYER
 10
53.7235609026
 20
28.986814862
 11
53.7235609026
 21
28.2051283768
  0
LINE
  5
2A5
100
AcDbEntity
  8
0
100
AcDbLine
 62
7
  6
BYLAYER
 10
53.7235609026
 20
26.4463251982
 11
53.7235609026
 21
25.6646387129
  0
LINE
  5
2A6
100
AcDbEntity
  8
0
100
AcDbLine
 62
7
  6
BYLAYER
 10
54.6129076408
 20
10.8742307474
 11
54.6129076408
 21
14.2757267875
  0
LINE
  5
2A7
100
AcDbEntity
  8
0
100
AcDbLine
 62
7
  6
BYLAYER
 10
54.6341911597
 20
134.3826915946
 11
54.6341911597
 21
137.8807534541
  0
LINE
  5
2A8
100
AcDbEntity
  8
0
100
AcDbLine
 62
7
  6
BYLAYER
 10
59.5457370517
 20
79.6456358074
 11
58.6235609026
 21
79.3099911384
  0
LINE
  5
2A9
100
AcDbEntity
  8
0
100
AcDbLine
 62
7
  6
BYLAYER
 10
58.0457370517
 20
72.09948107
 11
53.7235609026
 21
72.09948107
  0
LINE
  5
2AA
100
AcDbEntity
  8
0
100
AcDbLine
 62
7
  6
BYLAYER
 10
53.7235609026
 20
72.5873049209
 11
58.0457370517
 21
72.5873049209
  0
LINE
  5
2AB
100
AcDbEntity
  8
0
100
AcDbLine
 62
7
  6
BYLAYER
 10
58.0457370517
 20
73.5373049209
 11
58.6235609026
 21
73.5373049209
  0
LINE
  5
2AC
100
AcDbEntity
  8
0
100
AcDbLine
 62
7
  6
BYLAYER
 10
58.6235609026
 20
74.95948107
 11
58.0457370517
 21
74.95948107
  0
LINE
  5
2AD
100
AcDbEntity
  8
0
100
AcDbLine
 62
7
  6
BYLAYER
 10
58.0457370517
 20
75.90948107
 11
53.7235609026
 21
75.90948107
  0
LINE
  5
2AE
100
AcDbEntity
  8
0
100
AcDbLine
 62
7
  6
BYLAYER
 10
58.6235609026
 20
72.9967948526
 11
59.5457370517
 21
72.6611501836
  0
LINE
  5
2AF
100
AcDbEntity
  8
0
100
AcDbLine
 62
7
  6
BYLAYER
 10
58.0457370517
 20
25.6646387129
 11
58.0457370517
 21
26.6146387129
  0
LINE
  5
2B0
100
AcDbEntity
  8
0
100
AcDbLine
 62
7
  6
BYLAYER
 10
58.0457370517
 20
28.036814862
 11
58.0457370517
 21
28.986814862
  0
LINE
  5
2B1
100
AcDbEntity
  8
0
100
AcDbLine
 62
7
  6
BYLAYER
 10
58.0457370517
 20
29.4746387129
 11
58.0457370517
 21
30.4246387129
  0
LINE
  5
2B2
100
AcDbEntity
  8
0
100
AcDbLine
 62
7
  6
BYLAYER
 10
58.0457370517
 20
31.846814862
 11
58.0457370517
 21
32.796814862
  0
LINE
  5
2B3
100
AcDbEntity
  8
0
100
AcDbLine
 62
7
  6
BYLAYER
 10
58.0457370517
 20
33.2846387129
 11
58.0457370517
 21
34.2346387129
  0
LINE
  5
2B4
100
AcDbEntity
  8
0
100
AcDbLine
 62
7
  6
BYLAYER
 10
58.0457370517
 20
35.656814862
 11
58.0457370517
 21
36.606814862
  0
LINE
  5
2B5
100
AcDbEntity
  8
0
100
AcDbLine
 62
7
  6
BYLAYER
 10
58.0457370517
 20
37.0946387129
 11
58.0457370517
 21
38.0446387129
  0
LINE
  5
2B6
100
AcDbEntity
  8
0
100
AcDbLine
 62
7
  6
BYLAYER
 10
58.0457370517
 20
39.466814862
 11
58.0457370517
 21
40.416814862
  0
LINE
  5
2B7
100
AcDbEntity
  8
0
100
AcDbLine
 62
7
  6
BYLAYER
 10
58.0457370517
 20
40.9046387129
 11
58.0457370517
 21
41.8546387129
  0
LINE
  5
2B8
100
AcDbEntity
  8
0
100
AcDbLine
 62
7
  6
BYLAYER
 10
58.0457370517
 20
43.276814862
 11
58.0457370517
 21
44.226814862
  0
LINE
  5
2B9
100
AcDbEntity
  8
0
100
AcDbLine
 62
7
  6
BYLAYER
 10
58.0457370517
 20
44.7146387129
 11
58.0457370517
 21
45.6646387129
  0
LINE
  5
2BA
100
AcDbEntity
  8
0
100
AcDbLine
 62
7
  6
BYLAYER
 10
58.0457370517
 20
47.086814862
 11
58.0457370517
 21
48.036814862
  0
LINE
  5
2BB
100
AcDbEntity
  8
0
100
AcDbLine
 62
7
  6
BYLAYER
 10
58.0457370517
 20
61.1573049209
 11
58.0457370517
 21
62.1073049209
  0
LINE
  5
2BC
100
AcDbEntity
  8
0
100
AcDbLine
 62
7
  6
BYLAYER
 10
58.0457370517
 20
63.52948107
 11
58.0457370517
 21
64.47948107
  0
LINE
  5
2BD
100
AcDbEntity
  8
0
100
AcDbLine
 62
7
  6
BYLAYER
 10
58.0457370517
 20
64.9673049209
 11
58.0457370517
 21
65.9173049209
  0
LINE
  5
2BE
100
AcDbEntity
  8
0
100
AcDbLine
 62
7
  6
BYLAYER
 10
58.0457370517
 20
67.33948107
 11
58.0457370517
 21
68.28948107
  0
LINE
  5
2BF
100
AcDbEntity
  8
0
100
AcDbLine
 62
7
  6
BYLAYER
 10
58.0457370517
 20
68.7773049209
 11
58.0457370517
 21
69.7273049209
  0
LINE
  5
2C0
100
AcDbEntity
  8
0
100
AcDbLine
 62
7
  6
BYLAYER
 10
58.0457370517
 20
71.14948107
 11
58.0457370517
 21
72.09948107
  0
LINE
  5
2C1
100
AcDbEntity
  8
0
100
AcDbLine
 62
7
  6
BYLAYER
 10
58.0457370517
 20
72.5873049209
 11
58.0457370517
 21
73.5373049209
  0
LINE
  5
2C2
100
AcDbEntity
  8
0
100
AcDbLine
 62
7
  6
BYLAYER
 10
58.0457370517
 20
74.95948107
 11
58.0457370517
 21
75.90948107
  0
LINE
  5
2C3
100
AcDbEntity
  8
0
100
AcDbLine
 62
7
  6
BYLAYER
 10
58.0457370517
 20
76.3973049209
 11
58.0457370517
 21
77.3473049209
  0
LINE
  5
2C4
100
AcDbEntity
  8
0
100
AcDbLine
 62
7
  6
BYLAYER
 10
58.0457370517
 20
78.76948107
 11
58.0457370517
 21
79.71948107
  0
LINE
  5
2C5
100
AcDbEntity
  8
0
100
AcDbLine
 62
7
  6
BYLAYER
 10
58.0457370517
 20
80.2073049209
 11
58.0457370517
 21
81.1573049209
  0
LINE
  5
2C6
100
AcDbEntity
  8
0
100
AcDbLine
 62
7
  6
BYLAYER
 10
58.0457370517
 20
82.57948107
 11
58.0457370517
 21
83.52948107
  0
LINE
  5
2C7
100
AcDbEntity
  8
0
100
AcDbLine
 62
7
  6
BYLAYER
 10
58.2304716396
 20
137.8807534541
 11
58.2304716396
 21
134.3826915946
  0
LINE
  5
2C8
100
AcDbEntity
  8
0
100
AcDbLine
 62
7
  6
BYLAYER
 10
58.2661879897
 20
14.2734619497
 11
58.2661879897
 21
10.8742307474
  0
LINE
  5
2C9
100
AcDbEntity
  8
0
100
AcDbLine
 62
7
  6
BYLAYER
 10
58.6235609026
 20
83.1199911384
 11
58.6235609026
 21
82.57948107
  0
LINE
  5
2CA
100
AcDbEntity
  8
0
100
AcDbLine
 62
7
  6
BYLAYER
 10
58.6235609026
 20
81.1573049209
 11
58.6235609026
 21
80.6167948526
  0
LINE
  5
2CB
100
AcDbEntity
  8
0
100
AcDbLine
 62
7
  6
BYLAYER
 10
58.6235609026
 20
79.3099911384
 11
58.6235609026
 21
78.76948107
  0
LINE
  5
2CC
100
AcDbEntity
  8
0
100
AcDbLine
 62
7
  6
BYLAYER
 10
58.6235609026
 20
77.3473049209
 11
58.6235609026
 21
76.8067948526
  0
LINE
  5
2CD
100
AcDbEntity
  8
0
100
AcDbLine
 62
7
  6
BYLAYER
 10
58.6235609026
 20
75.4999911384
 11
58.6235609026
 21
74.95948107
  0
LINE
  5
2CE
100
AcDbEntity
  8
0
100
AcDbLine
 62
7
  6
BYLAYER
 10
58.6235609026
 20
73.5373049209
 11
58.6235609026
 21
72.9967948526
  0
LINE
  5
2CF
100
AcDbEntity
  8
0
100
AcDbLine
 62
7
  6
BYLAYER
 10
58.6235609026
 20
71.6899911384
 11
58.6235609026
 21
71.14948107
  0
LINE
  5
2D0
100
AcDbEntity
  8
0
100
AcDbLine
 62
7
  6
BYLAYER
 10
58.6235609026
 20
69.7273049209
 11
58.6235609026
 21
69.1867948526
  0
LINE
  5
2D1
100
AcDbEntity
  8
0
100
AcDbLine
 62
7
  6
BYLAYER
 10
58.6235609026
 20
67.8799911384
 11
58.6235609026
 21
67.33948107
  0
LINE
  5
2D2
100
AcDbEntity
  8
0
100
AcDbLine
 62
7
  6
BYLAYER
 10
58.6235609026
 20
65.9173049209
 11
58.6235609026
 21
65.3767948526
  0
LINE
  5
2D3
100
AcDbEntity
  8
0
100
AcDbLine
 62
7
  6
BYLAYER
 10
58.6235609026
 20
64.0699911384
 11
58.6235609026
 21
63.52948107
  0
LINE
  5
2D4
100
AcDbEntity
  8
0
100
AcDbLine
 62
7
  6
BYLAYER
 10
58.6235609026
 20
62.1073049209
 11
58.6235609026
 21
61.5667948526
  0
LINE
  5
2D5
100
AcDbEntity
  8
0
100
AcDbLine
 62
7
  6
BYLAYER
 10
58.6235609026
 20
47.6273249303
 11
58.6235609026
 21
47.086814862
  0
LINE
  5
2D6
100
AcDbEntity
  8
0
100
AcDbLine
 62
7
  6
BYLAYER
 10
58.6235609026
 20
45.6646387129
 11
58.6235609026
 21
45.1241286446
  0
LINE
  5
2D7
100
AcDbEntity
  8
0
100
AcDbLine
 62
7
  6
BYLAYER
 10
58.6235609026
 20
43.8173249303
 11
58.6235609026
 21
43.276814862
  0
LINE
  5
2D8
100
AcDbEntity
  8
0
100
AcDbLine
 62
7
  6
BYLAYER
 10
58.6235609026
 20
41.8546387129
 11
58.6235609026
 21
41.3141286446
  0
LINE
  5
2D9
100
AcDbEntity
  8
0
100
AcDbLine
 62
7
  6
BYLAYER
 10
58.6235609026
 20
40.0073249303
 11
58.6235609026
 21
39.466814862
  0
LINE
  5
2DA
100
AcDbEntity
  8
0
100
AcDbLine
 62
7
  6
BYLAYER
 10
58.6235609026
 20
38.0446387129
 11
58.6235609026
 21
37.5041286446
  0
LINE
  5
2DB
100
AcDbEntity
  8
0
100
AcDbLine
 62
7
  6
BYLAYER
 10
58.6235609026
 20
36.1973249303
 11
58.6235609026
 21
35.656814862
  0
LINE
  5
2DC
100
AcDbEntity
  8
0
100
AcDbLine
 62
7
  6
BYLAYER
 10
58.6235609026
 20
34.2346387129
 11
58.6235609026
 21
33.6941286446
  0
LINE
  5
2DD
100
AcDbEntity
  8
0
100
AcDbLine
 62
7
  6
BYLAYER
 10
58.6235609026
 20
32.3873249303
 11
58.6235609026
 21
31.846814862
  0
LINE
  5
2DE
100
AcDbEntity
  8
0
100
AcDbLine
 62
7
  6
BYLAYER
 10
58.6235609026
 20
30.4246387129
 11
58.6235609026
 21
29.8841286446
  0
LINE
  5
2DF
100
AcDbEntity
  8
0
100
AcDbLine
 62
7
  6
BYLAYER
 10
58.6235609026
 20
28.5773249303
 11
58.6235609026
 21
28.036814862
  0
LINE
  5
2E0
100
AcDbEntity
  8
0
100
AcDbLine
 62
7
  6
BYLAYER
 10
58.6235609026
 20
26.6146387129
 11
58.6235609026
 21
26.0741286446
  0
LINE
  5
2E1
100
AcDbEntity
  8
0
100
AcDbLine
 62
7
  6
BYLAYER
 10
59.5457370517
 20
25.7384839756
 11
59.5457370517
 21
28.9129695994
  0
LINE
  5
2E2
100
AcDbEntity
  8
0
100
AcDbLine
 62
7
  6
BYLAYER
 10
59.5457370517
 20
29.5484839756
 11
59.5457370517
 21
32.7229695994
  0
LINE
  5
2E3
100
AcDbEntity
  8
0
100
AcDbLine
 62
7
  6
BYLAYER
 10
59.5457370517
 20
33.3584839756
 11
59.5457370517
 21
36.5329695994
  0
LINE
  5
2E4
100
AcDbEntity
  8
0
100
AcDbLine
 62
7
  6
BYLAYER
 10
59.5457370517
 20
37.1684839756
 11
59.5457370517
 21
40.3429695994
  0
LINE
  5
2E5
100
AcDbEntity
  8
0
100
AcDbLine
 62
7
  6
BYLAYER
 10
59.5457370517
 20
40.9784839756
 11
59.5457370517
 21
44.1529695994
  0
LINE
  5
2E6
100
AcDbEntity
  8
0
100
AcDbLine
 62
7
  6
BYLAYER
 10
59.5457370517
 20
44.7884839756
 11
59.5457370517
 21
47.9629695994
  0
LINE
  5
2E7
100
AcDbEntity
  8
0
100
AcDbLine
 62
7
  6
BYLAYER
 10
59.5457370517
 20
61.2311501836
 11
59.5457370517
 21
64.4056358074
  0
LINE
  5
2E8
100
AcDbEntity
  8
0
100
AcDbLine
 62
7
  6
BYLAYER
 10
59.5457370517
 20
65.0411501836
 11
59.5457370517
 21
68.2156358074
  0
LINE
  5
2E9
100
AcDbEntity
  8
0
100
AcDbLine
 62
7
  6
BYLAYER
 10
59.5457370517
 20
68.8511501836
 11
59.5457370517
 21
72.0256358074
  0
LINE
  5
2EA
100
AcDbEntity
  8
0
100
AcDbLine
 62
7
  6
BYLAYER
 10
59.5457370517
 20
72.6611501836
 11
59.5457370517
 21
75.8356358074
  0
LINE
  5
2EB
100
AcDbEntity
  8
0
100
AcDbLine
 62
7
  6
BYLAYER
 10
59.5457370517
 20
76.4711501836
 11
59.5457370517
 21
79.6456358074
  0
LINE
  5
2EC
100
AcDbEntity
  8
0
100
AcDbLine
 62
7
  6
BYLAYER
 10
59.5457370517
 20
80.2811501836
 11
59.5457370517
 21
83.4556358074
  0
LINE
  5
2ED
100
AcDbEntity
  8
0
100
AcDbLine
 62
7
  6
BYLAYER
 10
59.5457370517
 20
75.8356358074
 11
58.6235609026
 21
75.4999911384
  0
LINE
  5
2EE
100
AcDbEntity
  8
0
100
AcDbLine
 62
7
  6
BYLAYER
 10
59.5457370517
 20
72.0256358074
 11
58.6235609026
 21
71.6899911384
  0
LINE
  5
2EF
100
AcDbEntity
  8
0
100
AcDbLine
 62
7
  6
BYLAYER
 10
53.7235609026
 20
76.3973049209
 11
58.0457370517
 21
76.3973049209
  0
LINE
  5
2F0
100
AcDbEntity
  8
0
100
AcDbLine
 62
7
  6
BYLAYER
 10
58.0457370517
 20
77.3473049209
 11
58.6235609026
 21
77.3473049209
  0
LINE
  5
2F1
100
AcDbEntity
  8
0
100
AcDbLine
 62
7
  6
BYLAYER
 10
58.6235609026
 20
78.76948107
 11
58.0457370517
 21
78.76948107
  0
LINE
  5
2F2
100
AcDbEntity
  8
0
100
AcDbLine
 62
7
  6
BYLAYER
 10
58.0457370517
 20
79.71948107
 11
53.7235609026
 21
79.71948107
  0
LINE
  5
2F3
100
AcDbEntity
  8
0
100
AcDbLine
 62
7
  6
BYLAYER
 10
53.7235609026
 20
80.2073049209
 11
58.0457370517
 21
80.2073049209
  0
LINE
  5
2F4
100
AcDbEntity
  8
0
100
AcDbLine
 62
7
  6
BYLAYER
 10
58.6235609026
 20
76.8067948526
 11
59.5457370517
 21
76.4711501836
  0
LINE
  5
2F5
100
AcDbEntity
  8
0
100
AcDbLine
 62
7
  6
BYLAYER
 10
60.7846489771
 20
101.8757267875
 11
60.7846489771
 21
129.2757267875
  0
LINE
  5
2F6
100
AcDbEntity
  8
0
100
AcDbLine
 62
7
  6
BYLAYER
 10
61.0846489771
 20
25.0257267875
 11
61.0846489771
 21
48.6757267875
  0
LINE
  5
2F7
100
AcDbEntity
  8
0
100
AcDbLine
 62
7
  6
BYLAYER
 10
61.0846489771
 20
60.5183929955
 11
61.0846489771
 21
84.1683929955
  0
LINE
  5
2F8
100
AcDbEntity
  8
0
100
AcDbLine
 62
7
  6
BYLAYER
 10
62.0346489771
 20
140.0638097119
 11
62.0346489771
 21
134.5757267875
  0
LINE
  5
2F9
100
AcDbEntity
  8
0
100
AcDbLine
 62
7
  6
BYLAYER
 10
62.4714998169
 20
14.2820876377
 11
62.4714998169
 21
134.3826915946
  0
LINE
  5
2FA
100
AcDbEntity
  8
0
100
AcDbLine
 62
7
  6
BYLAYER
 10
63.5346489771
 20
15.1981440028
 11
63.5346489771
 21
16.3627267875
  0
LINE
  5
2FB
100
AcDbEntity
  8
0
100
AcDbLine
 62
7
  6
BYLAYER
 10
63.5346489771
 20
132.3607267875
 11
63.5346489771
 21
133.5107267875
  0
LINE
  5
2FC
100
AcDbEntity
  8
0
100
AcDbLine
 62
7
  6
BYLAYER
 10
59.5457370517
 20
68.2156358074
 11
58.6235609026
 21
67.8799911384
  0
LINE
  5
2FD
100
AcDbEntity
  8
0
100
AcDbLine
 62
7
  6
BYLAYER
 10
58.0457370517
 20
81.1573049209
 11
58.6235609026
 21
81.1573049209
  0
LINE
  5
2FE
100
AcDbEntity
  8
0
100
AcDbLine
 62
7
  6
BYLAYER
 10
58.6235609026
 20
82.57948107
 11
58.0457370517
 21
82.57948107
  0
LINE
  5
2FF
100
AcDbEntity
  8
0
100
AcDbLine
 62
7
  6
BYLAYER
 10
58.0457370517
 20
83.52948107
 11
53.7235609026
 21
83.52948107
  0
LINE
  5
300
100
AcDbEntity
  8
0
100
AcDbLine
 62
7
  6
BYLAYER
 10
61.0846489771
 20
84.1683929955
 11
49.3846489771
 21
84.1683929955
  0
LINE
  5
301
100
AcDbEntity
  8
0
100
AcDbLine
 62
7
  6
BYLAYER
 10
58.6235609026
 20
80.6167948526
 11
59.5457370517
 21
80.2811501836
  0
LINE
  5
302
100
AcDbEntity
  8
0
100
AcDbLine
 62
7
  6
BYLAYER
 10
64.5346489771
 20
140.0638097119
 11
64.5346489771
 21
132.3607267875
  0
LINE
  5
303
100
AcDbEntity
  8
0
100
AcDbLine
 62
7
  6
BYLAYER
 10
64.5346489771
 20
16.3627267875
 11
64.5346489771
 21
12.3477267875
  0
LINE
  5
304
100
AcDbEntity
  8
0
100
AcDbLine
 62
7
  6
BYLAYER
 10
59.5457370517
 20
64.4056358074
 11
58.6235609026
 21
64.0699911384
  0
LINE
  5
305
100
AcDbEntity
  8
0
100
AcDbLine
 62
7
  6
BYLAYER
 10
48.5846489771
 20
84.8168845582
 11
48.4187609216
 21
84.8168845354
  0
LINE
  5
306
100
AcDbEntity
  8
0
100
AcDbLine
 62
7
  6
BYLAYER
 10
48.5846489771
 20
85.2475721842
 11
48.4346489771
 21
85.2475721842
  0
LINE
  5
307
100
AcDbEntity
  8
0
100
AcDbLine
 62
7
  6
BYLAYER
 10
48.4346489771
 20
87.2475721877
 11
48.5846489771
 21
87.2475721877
  0
LINE
  5
308
100
AcDbEntity
  8
0
100
AcDbLine
 62
7
  6
BYLAYER
 10
48.5846489771
 20
91.8207615957
 11
48.4187609216
 21
91.8207615957
  0
LINE
  5
309
100
AcDbEntity
  8
0
100
AcDbLine
 62
7
  6
BYLAYER
 10
48.5846489771
 20
92.215953176
 11
48.4346489771
 21
92.215953176
  0
LINE
  5
30A
100
AcDbEntity
  8
0
100
AcDbLine
 62
7
  6
BYLAYER
 10
48.5846489771
 20
93.3893166238
 11
62.4714998169
 21
93.3893166238
  0
LINE
  5
30B
100
AcDbEntity
  8
0
100
AcDbLine
 62
7
  6
BYLAYER
 10
48.4346489771
 20
94.2159531796
 11
48.5846489771
 21
94.2159531796
  0
LINE
  5
30C
100
AcDbEntity
  8
0
100
AcDbLine
 62
7
  6
BYLAYER
 10
48.5846489771
 20
94.4287065602
 11
48.4187609216
 21
94.4287065597
  0
LINE
  5
30D
100
AcDbEntity
  8
0
100
AcDbLine
 62
7
  6
BYLAYER
 10
53.2846489772
 20
101.8757267875
 11
60.7846489771
 21
101.8757267875
  0
LINE
  5
30E
100
AcDbEntity
  8
0
100
AcDbLine
 62
7
  6
BYLAYER
 10
59.5457370517
 20
47.9629695994
 11
58.6235609026
 21
47.6273249303
  0
LINE
  5
30F
100
AcDbEntity
  8
0
100
AcDbLine
 62
7
  6
BYLAYER
 10
59.5457370517
 20
44.1529695994
 11
58.6235609026
 21
43.8173249303
  0
LINE
  5
310
100
AcDbEntity
  8
0
100
AcDbLine
 62
7
  6
BYLAYER
 10
48.4187609216
 20
103.5023154648
 11
45.6346489771
 21
103.5023154648
  0
LINE
  5
311
100
AcDbEntity
  8
0
100
AcDbLine
 62
7
  6
BYLAYER
 10
45.6346489771
 20
104.2023154648
 11
48.4187609216
 21
104.2023154648
  0
LINE
  5
312
100
AcDbEntity
  8
0
100
AcDbLine
 62
7
  6
BYLAYER
 10
59.5457370517
 20
40.3429695994
 11
58.6235609026
 21
40.0073249303
  0
LINE
  5
313
100
AcDbEntity
  8
0
100
AcDbLine
 62
7
  6
BYLAYER
 10
48.4187609216
 20
107.6931130256
 11
45.6346489771
 21
107.6931130256
  0
LINE
  5
314
100
AcDbEntity
  8
0
100
AcDbLine
 62
7
  6
BYLAYER
 10
45.6346489771
 20
108.3931130256
 11
48.4187609216
 21
108.3931130256
  0
LINE
  5
315
100
AcDbEntity
  8
0
100
AcDbLine
 62
7
  6
BYLAYER
 10
59.5457370517
 20
36.5329695994
 11
58.6235609026
 21
36.1973249303
  0
LINE
  5
316
100
AcDbEntity
  8
0
100
AcDbLine
 62
7
  6
BYLAYER
 10
48.4187609216
 20
111.9075874088
 11
45.6346489771
 21
111.9075874088
  0
LINE
  5
317
100
AcDbEntity
  8
0
100
AcDbLine
 62
7
  6
BYLAYER
 10
45.6346489771
 20
112.6075874088
 11
48.4187609216
 21
112.6075874088
  0
LINE
  5
318
100
AcDbEntity
  8
0
100
AcDbLine
 62
7
  6
BYLAYER
 10
59.5457370517
 20
32.7229695994
 11
58.6235609026
 21
32.3873249303
  0
LINE
  5
319
100
AcDbEntity
  8
0
100
AcDbLine
 62
7
  6
BYLAYER
 10
48.4187609216
 20
116.0983849696
 11
45.6346489771
 21
116.0983849696
  0
LINE
  5
31A
100
AcDbEntity
  8
0
100
AcDbLine
 62
7
  6
BYLAYER
 10
45.6346489771
 20
116.7983849696
 11
48.4187609216
 21
116.7983849696
  0
LINE
  5
31B
100
AcDbEntity
  8
0
100
AcDbLine
 62
7
  6
BYLAYER
 10
59.5457370517
 20
28.9129695994
 11
58.6235609026
 21
28.5773249303
  0
LINE
  5
31C
100
AcDbEntity
  8
0
100
AcDbLine
 62
7
  6
BYLAYER
 10
47.5746489771
 20
120.1357267875
 11
48.4187609216
 21
120.1357267875
  0
LINE
  5
31D
100
AcDbEntity
  8
0
100
AcDbLine
 62
7
  6
BYLAYER
 10
47.6346489771
 20
120.3128593528
 11
45.6346489771
 21
120.3128593528
  0
LINE
  5
31E
100
AcDbEntity
  8
0
100
AcDbLine
 62
7
  6
BYLAYER
 10
47.6346489771
 20
120.4357267875
 11
48.4187609216
 21
120.4357267875
  0
LINE
  5
31F
100
AcDbEntity
  8
0
100
AcDbLine
 62
7
  6
BYLAYER
 10
47.6346489771
 20
120.8857267875
 11
48.4187609216
 21
120.8857267875
  0
LINE
  5
320
100
AcDbEntity
  8
0
100
AcDbLine
 62
7
  6
BYLAYER
 10
45.6346489771
 20
121.0128593528
 11
47.6346489771
 21
121.0128593528
  0
LINE
  5
321
100
AcDbEntity
  8
0
100
AcDbLine
 62
7
  6
BYLAYER
 10
47.5746489771
 20
121.1857267875
 11
48.4187609216
 21
121.1857267875
  0
LINE
  5
322
100
AcDbEntity
  8
0
100
AcDbLine
 62
7
  6
BYLAYER
 10
47.5746489771
 20
124.3357267875
 11
48.4187609216
 21
124.3357267875
  0
LINE
  5
323
100
AcDbEntity
  8
0
100
AcDbLine
 62
7
  6
BYLAYER
 10
47.6346489771
 20
124.5036569136
 11
45.6346489771
 21
124.5036569136
  0
LINE
  5
324
100
AcDbEntity
  8
0
100
AcDbLine
 62
7
  6
BYLAYER
 10
47.6346489771
 20
124.6357267875
 11
48.4187609216
 21
124.6357267875
  0
LINE
  5
325
100
AcDbEntity
  8
0
100
AcDbLine
 62
7
  6
BYLAYER
 10
47.6346489771
 20
125.0857267875
 11
48.4187609216
 21
125.0857267875
  0
LINE
  5
326
100
AcDbEntity
  8
0
100
AcDbLine
 62
7
  6
BYLAYER
 10
45.6346489771
 20
125.2036569136
 11
47.6346489771
 21
125.2036569136
  0
LINE
  5
327
100
AcDbEntity
  8
0
100
AcDbLine
 62
7
  6
BYLAYER
 10
47.5746489771
 20
125.3857267875
 11
48.4187609216
 21
125.3857267875
  0
LINE
  5
328
100
AcDbEntity
  8
0
100
AcDbLine
 62
7
  6
BYLAYER
 10
48.4187609216
 20
128.8756927068
 11
48.5846489771
 21
128.8756927068
  0
LINE
  5
329
100
AcDbEntity
  8
0
100
AcDbLine
 62
7
  6
BYLAYER
 10
60.7846489771
 20
129.2757267875
 11
53.2846489771
 21
129.2757267875
  0
LINE
  5
32A
100
AcDbEntity
  8
0
100
AcDbLine
 62
7
  6
BYLAYER
 10
64.5346489771
 20
132.3607267875
 11
62.4714998169
 21
132.3607267875
  0
LINE
  5
32B
100
AcDbEntity
  8
0
100
AcDbLine
 62
7
  6
BYLAYER
 10
48.4187609216
 20
133.4107267875
 11
48.5846489771
 21
133.4107267875
  0
LINE
  5
32C
100
AcDbEntity
  8
0
100
AcDbLine
 62
7
  6
BYLAYER
 10
63.5346489771
 20
133.5107267875
 11
62.4714998169
 21
133.5107267875
  0
LINE
  5
32D
100
AcDbEntity
  8
0
100
AcDbLine
 62
7
  6
BYLAYER
 10
48.5846489771
 20
134.3826915946
 11
62.4714998169
 21
134.3826915946
  0
LINE
  5
32E
100
AcDbEntity
  8
0
100
AcDbLine
 62
7
  6
BYLAYER
 10
64.5346489771
 20
134.5757267875
 11
58.2304716396
 21
134.5757267875
  0
LINE
  5
32F
100
AcDbEntity
  8
0
100
AcDbLine
 62
7
  6
BYLAYER
 10
54.6341911597
 20
134.5757267875
 11
50.6346489771
 21
134.5757267875
  0
LINE
  5
330
100
AcDbEntity
  8
0
100
AcDbLine
 62
7
  6
BYLAYER
 10
58.2304716396
 20
137.2616637319
 11
54.6341911597
 21
137.2616637319
  0
LINE
  5
331
100
AcDbEntity
  8
0
100
AcDbLine
 62
7
  6
BYLAYER
 10
58.2304716396
 20
137.8807534541
 11
54.6341911597
 21
137.8807534541
  0
LINE
  5
332
100
AcDbEntity
  8
0
100
AcDbLine
 62
7
  6
BYLAYER
 10
50.6346489771
 20
140.0638097119
 11
64.5346489771
 21
140.0638097119
  0
ARC
  5
333
100
AcDbEntity
  8
0
100
AcDbCircle
 62
7
  6
BYLAYER
 10
56.6697686639
 20
2.5678645102
 40
11.2887544354
100
AcDbArc
 50
100.5193019942
 51
113.1866174785
  0
ARC
  5
334
100
AcDbEntity
  8
0
100
AcDbCircle
 62
7
  6
BYLAYER
 10
56.5481168343
 20
2.7140957088
 40
11.1400442638
100
AcDbArc
 50
66.6891712721
 51
81.1185508372
  0
ARC
  5
335
100
AcDbEntity
  8
0
100
AcDbCircle
 62
7
  6
BYLAYER
 10
56.5846254314
 20
2.2890640396
 40
11.0258820619
100
AcDbArc
 50
100.3102186848
 51
114.1168688745
  0
ARC
  5
336
100
AcDbEntity
  8
0
100
AcDbCircle
 62
7
  6
BYLAYER
 10
56.5846254314
 20
2.2890640396
 40
11.0258820619
100
AcDbArc
 50
65.8726763604
 51
81.2237448221
  0
ARC
  5
337
100
AcDbEntity
  8
0
100
AcDbCircle
 62
7
  6
BYLAYER
 10
52.5846489771
 20
31.1357267875
 40
1.4389119255
100
AcDbArc
 50
322.3267664696
 51
37.6732335304
  0
ARC
  5
338
100
AcDbEntity
  8
0
100
AcDbCircle
 62
7
  6
BYLAYER
 10
52.5846489771
 20
27.3257267875
 40
1.4389119255
100
AcDbArc
 50
322.3267664696
 51
37.6732335304
  0
ARC
  5
339
100
AcDbEntity
  8
0
100
AcDbCircle
 62
7
  6
BYLAYER
 10
52.5846489771
 20
42.5657267875
 40
1.4389119255
100
AcDbArc
 50
322.3267664696
 51
37.6732335304
  0
ARC
  5
33A
100
AcDbEntity
  8
0
100
AcDbCircle
 62
7
  6
BYLAYER
 10
52.5846489771
 20
38.7557267875
 40
1.4389119255
100
AcDbArc
 50
322.3267664696
 51
37.6732335304
  0
ARC
  5
33B
100
AcDbEntity
  8
0
100
AcDbCircle
 62
7
  6
BYLAYER
 10
52.5846489771
 20
34.9457267875
 40
1.4389119255
100
AcDbArc
 50
322.3267664696
 51
37.6732335304
  0
ARC
  5
33C
100
AcDbEntity
  8
0
100
AcDbCircle
 62
7
  6
BYLAYER
 10
52.5846489771
 20
46.3757267875
 40
1.4389119255
100
AcDbArc
 50
322.3267664696
 51
37.6732335304
  0
ARC
  5
33D
100
AcDbEntity
  8
0
100
AcDbCircle
 62
7
  6
BYLAYER
 10
52.5846489771
 20
81.8683929955
 40
1.4389119255
100
AcDbArc
 50
322.3267664696
 51
37.6732335304
  0
ARC
  5
33E
100
AcDbEntity
  8
0
100
AcDbCircle
 62
7
  6
BYLAYER
 10
52.5846489771
 20
70.4383929955
 40
1.4389119255
100
AcDbArc
 50
322.3267664696
 51
37.6732335304
  0
ARC
  5
33F
100
AcDbEntity
  8
0
100
AcDbCircle
 62
7
  6
BYLAYER
 10
52.5846489771
 20
74.2483929955
 40
1.4389119255
100
AcDbArc
 50
322.3267664696
 51
37.6732335304
  0
ARC
  5
340
100
AcDbEntity
  8
0
100
AcDbCircle
 62
7
  6
BYLAYER
 10
52.5846489771
 20
78.0583929955
 40
1.4389119255
100
AcDbArc
 50
322.3267664696
 51
37.6732335304
  0
ARC
  5
341
100
AcDbEntity
  8
0
100
AcDbCircle
 62
7
  6
BYLAYER
 10
52.5846489771
 20
62.8183929955
 40
1.4389119255
100
AcDbArc
 50
322.3267664696
 51
37.6732335304
  0
ARC
  5
342
100
AcDbEntity
  8
0
100
AcDbCircle
 62
7
  6
BYLAYER
 10
52.5846489771
 20
66.6283929955
 40
1.4389119255
100
AcDbArc
 50
322.3267664696
 51
37.6732335304
  0
SPLINE
  5
343
100
AcDbEntity
  8
0
100
AcDbSpline
 62
7
  6
BYLAYER
 70
0
 71
3
 72
24
 73
20
 74
0
 42
0.0000001
 43
0.0000001
 44
0.0000000001
 40
0.0
 40
0.0
 40
0.0
 40
0.0
 40
0.0420543546
 40
0.0577874065
 40
0.0702127191
 40
0.079854868
 40
0.0878825856
 40
0.1054257391
 40
0.1175384093
 40
0.1323653719
 40
0.1704110361
 40
0.2193759127
 40
0.2784813686
 40
0.346770654
 40
0.4232111193
 40
0.506735881
 40
0.5963034307
 40
0.7904699092
 40
1.0
 40
1.0
 40
1.0
 40
1.0
 10
60.0824347464
 20
13.1257640818
 30
0.0
 10
60.0618467731
 20
13.1257674328
 30
0.0
 10
60.0334203928
 20
13.1247134792
 30
0.0
 10
59.9996160611
 20
13.1180496482
 30
0.0
 10
59.9821283109
 20
13.1116934945
 30
0.0
 10
59.9697227997
 20
13.1032800871
 30
0.0
 10
59.960394986
 20
13.0878391296
 30
0.0
 10
59.9656907635
 20
13.0678807656
 30
0.0
 10
59.9774545228
 20
13.049869774
 30
0.0
 10
59.9981985777
 20
13.0254928412
 30
0.0
 10
60.0356918334
 20
12.9924903291
 30
0.0
 10
60.0930545546
 20
12.9496847822
 30
0.0
 10
60.1647976298
 20
12.9016116781
 30
0.0
 10
60.2492749616
 20
12.8484821718
 30
0.0
 10
60.3448988428
 20
12.7906597977
 30
0.0
 10
60.4500230255
 20
12.7284329582
 30
0.0
 10
60.6050665779
 20
12.6373981196
 30
0.0
 10
60.8132729015
 20
12.5150749711
 30
0.0
 10
60.982542306
 20
12.4130424921
 30
0.0
 10
61.0698544962
 20
12.3592040695
 30
0.0
  0
SPLINE
  5
344
100
AcDbEntity
  8
0
100
AcDbSpline
 62
7
  6
BYLAYER
 70
0
 71
3
 72
24
 73
20
 74
0
 42
0.0000001
 43
0.0000001
 44
0.0000000001
 40
0.0
 40
0.0
 40
0.0
 40
0.0
 40
0.2095858945
 40
0.4037944092
 40
0.4933792479
 40
0.5769253451
 40
0.6533886506
 40
0.7216937432
 40
0.7807994853
 40
0.8297410878
 40
0.8677406646
 40
0.882539708
 40
0.8946233255
 40
0.9121129374
 40
0.9201223461
 40
0.929750146
 40
0.9421659717
 40
0.957903475
 40
1.0
 40
1.0
 40
1.0
 40
1.0
 10
52.1110626081
 20
12.3592040695
 30
0.0
 10
52.1988227909
 20
12.4130283264
 30
0.0
 10
52.3689406732
 20
12.5150391248
 30
0.0
 10
52.5781660433
 20
12.6373498282
 30
0.0
 10
52.7339615868
 20
12.7283818342
 30
0.0
 10
52.8396009527
 20
12.7906077878
 30
0.0
 10
52.9356996294
 20
12.8484314624
 30
0.0
 10
53.0205958777
 20
12.9015640172
 30
0.0
 10
53.0926847221
 20
12.9496389315
 30
0.0
 10
53.1503064714
 20
12.9924450186
 30
0.0
 10
53.1879542716
 20
13.0254561696
 30
0.0
 10
53.2087730136
 20
13.0498454884
 30
0.0
 10
53.2205716549
 20
13.0678556131
 30
0.0
 10
53.2258768059
 20
13.0878371494
 30
0.0
 10
53.2165146063
 20
13.1032792007
 30
0.0
 10
53.20407647
 20
13.1116946088
 30
0.0
 10
53.1865329579
 20
13.1180539819
 30
0.0
 10
53.1525916038
 20
13.1247173232
 30
0.0
 10
53.1240471265
 20
13.1257693547
 30
0.0
 10
53.1033688378
 20
13.1257655682
 30
0.0
  0
ENDSEC
  0
SECTION
  2
OBJECTS
  0
DICTIONARY
  5
C
100
AcDbDictionary
280
0
281
1
  3
ACAD_GROUP
350
D
  3
ACAD_MLINESTYLE
350
17
  3
ACAD_LAYOUT
350
1A
  3
ACAD_PLOTSETTINGS
350
19
  3
ACAD_PLOTSTYLENAME
350
E
  0
DICTIONARY
  5
D
102
{ACAD_REACTORS
330
C
102
}
100
AcDbDictionary
280
0
281
1
  0
ACDBDICTIONARYWDFLT
  5
E
102
{ACAD_REACTORS
330
C
102
}
100
AcDbDictionary
281
1
  3
Normal
350
F
100
AcDbDictionaryWithDefault
340
F
  0
DICTIONARY
  5
17
102
{ACAD_REACTORS
330
C
102
}
100
AcDbDictionary
280
0
281
1
  3
Standard
350
18
  0
DICTIONARY
  5
19
102
{ACAD_REACTORS
330
C
102
}
100
AcDbDictionary
281
1
  0
DICTIONARY
  5
1A
102
{ACAD_REACTORS
330
C
102
}
100
AcDbDictionary
281
1
  3
Model
350
345
  3
Layout1
350
346
  0
ACDBPLACEHOLDER
  5
F
102
{ACAD_REACTORS
330
E
102
}
  0
MLINESTYLE
  5
18
102
{ACAD_REACTORS
330
17
102
}
100
AcDbMlineStyle
  2
STANDARD
 70
0
  3

 62
256
 51
90.0
 52
90.0
 71
2
 49
0.5
 62
256
  6
BYLAYER
 49
-0.5
 62
256
  6
BYLAYER
  0
LAYOUT
  5
345
102
{ACAD_REACTORS
330
1A
102
}
100
AcDbPlotSettings
  1

  2
none_device
  4

  6

 40
0.0
 41
0.0
 42
0.0
 43
0.0
 44
210.0
 45
297.0
 46
0.0
 47
0.0
 48
0.0
 49
0.0
140
0.0
141
0.0
142
1.0
143
1.0
 70
1024
 72
1
 73
0
 74
0
  7

 75
0
147
1.0
148
0.0
149
0.0
100
AcDbLayout
  1
Model
 70
0
 71
0
 10
0.0
 20
0.0
 11
210.0
 21
297.0
 12
0.0
 22
0.0
 32
0.0
 14
0.0
 24
0.0
 34
0.0
 15
0.0
 25
0.0
 35
0.0
146
0.0
 13
0.0
 23
0.0
 33
0.0
 16
1.0
 26
0.0
 36
0.0
 17
0.0
 27
1.0
 37
0.0
 76
0
330
210
345
0
346
0
  0
LAYOUT
  5
346
102
{ACAD_REACTORS
330
1A
102
}
100
AcDbPlotSettings
  1

  2
none_device
  4

  6

 40
0.0
 41
0.0
 42
0.0
 43
0.0
 44
210.0
 45
297.0
 46
0.0
 47
0.0
 48
0.0
 49
0.0
140
0.0
141
0.0
142
1.0
143
1.0
 70
0
 72
1
 73
0
 74
0
  7

 75
0
147
1.0
148
0.0
149
0.0
100
AcDbLayout
  1
Layout1
 70
0
 71
1
 10
0.0
 20
0.0
 11
210.0
 21
297.0
 12
0.0
 22
0.0
 32
0.0
 14
0.0
 24
0.0
 34
0.0
 15
0.0
 25
0.0
 35
0.0
146
0.0
 13
0.0
 23
0.0
 33
0.0
 16
1.0
 26
0.0
 36
0.0
 17
0.0
 27
1.0
 37
0.0
 76
0
330
211
345
0
346
0
  0
ENDSEC
  0
EOF
