999
DXF file: C:\Users\sesa63760\Dev\_Creo\CAD\MCADID0005043_3D-CAD\drw0001_4.dxf
999
Pro/ENGINEER 2019471 by Parametric Technology Corporation
  0
SECTION
  2
HEADER
  9
$ACADVER
  1
AC1024
  9
$DWGCODEPAGE
  3
ANSI_1252
  9
$EXTMAX
 10
114.5914794492
 20
162.0650923639
 30
0.0
  9
$EXTMIN
 10
0.0
 20
0.0
 30
0.0
  9
$LIMMIN
 10
0.0
 20
0.0
  9
$LIMMAX
 10
114.5914794492
 20
162.0650923639
  9
$VIEWCTR
 10
57.2957397246
 20
81.032546182
  9
$VIEWSIZE
 40
162.0650923639
  9
$CLAYER
  8
0
  9
$LTSCALE
 40
10.5642430578
  9
$CELTYPE
  6
BYLAYER
  9
$DIMSCALE
 40
1.0
  9
$DIMASZ
 40
1.3641842792
  9
$DIMEXO
 40
1.0
  9
$DIMDLI
 40
7.2989315672
  9
$DIMEXE
 40
1.0
  9
$DIMCEN
 40
1.7286943185
  9
$DIMLFAC
 40
1.0
  9
$DIMBLK
  1
_FILLED
  9
$DIMALT
 70
0
  9
$DIMALTF
 40
0.0393700787
  9
$DIMTXT
 40
1.9098579908
  9
$DIMTOL
 70
1
  9
$DIMLIM
 70
0
  9
$DIMTFAC
 40
1.0
  9
$DIMTP
 40
0.01
  9
$DIMTM
 40
0.01
  9
$DIMGAP
 40
0.625
  9
$DIMDSEP
 70
46
  9
$AUNITS
 70
0
  9
$PDMODE
 70
3
  9
$PDSIZE
 40
0.3125
  9
$HANDSEED
  5
2C6
  9
$TILEMODE
 70
1
  9
$MEASUREMENT
 70
1
  9
$INSUNITS
 70
4
  0
ENDSEC
  0
SECTION
  2
CLASSES
  0
CLASS
  1
ACDBDICTIONARYWDFLT
  2
AcDbDictionaryWithDefault
  3
AutoCAD 2000
 90
0
 91
1
280
0
281
0
  0
CLASS
  1
ACDBPLACEHOLDER
  2
AcDbPlaceHolder
  3
AutoCAD 2000
 90
0
 91
1
280
0
281
0
  0
CLASS
  1
LAYOUT
  2
AcDbLayout
  3
AutoCAD 2000
 90
0
 91
0
280
0
281
0
  0
ENDSEC
  0
SECTION
  2
TABLES
  0
TABLE
  2
VPORT
  5
8
100
AcDbSymbolTable
 70
2
  0
VPORT
  5
1F4
100
AcDbSymbolTableRecord
100
AcDbViewportTableRecord
  2
*ACTIVE
 70
0
 10
0.0
 20
0.0
 11
1.0
 21
1.0
 12
57.2957397246
 22
81.032546182
 13
0.0
 23
0.0
 14
1.0
 24
1.0
 15
0.0
 25
0.0
 16
0.0
 26
0.0
 36
1.0
 17
0.0
 27
0.0
 37
0.0
 40
162.0650923639
 41
0.7070707071
 42
50.0
 43
0.0
 44
0.0
 50
0.0
 51
0.0
 71
0
 72
100
 73
1
 74
1
 75
0
 76
0
 77
0
 78
0
  0
ENDTAB
  0
TABLE
  2
LTYPE
  5
5
100
AcDbSymbolTable
 70
6
  0
LTYPE
  5
14
100
AcDbSymbolTableRecord
100
AcDbLinetypeTableRecord
  2
BYBLOCK
 70
0
  3

 72
65
 73
0
 40
0.0
  0
LTYPE
  5
15
100
AcDbSymbolTableRecord
100
AcDbLinetypeTableRecord
  2
BYLAYER
 70
0
  3

 72
65
 73
0
 40
0.0
  0
LTYPE
  5
16
100
AcDbSymbolTableRecord
100
AcDbLinetypeTableRecord
  2
CONTINUOUS
 70
64
  3
Solid line
 72
65
 73
0
 40
0.0
  0
LTYPE
  5
1F5
100
AcDbSymbolTableRecord
100
AcDbLinetypeTableRecord
  2
CENTER
 70
64
  3
____ _ ____ _ ____ _ ____ _ ____ _ ____ _ ____
 72
65
 73
4
 40
0.6
 49
0.375
 74
0
 49
-0.075
 74
0
 49
0.075
 74
0
 49
-0.075
 74
0
  0
LTYPE
  5
1F6
100
AcDbSymbolTableRecord
100
AcDbLinetypeTableRecord
  2
HIDDEN
 70
64
  3
- - - - - - - - - - - - - - - - - - - -
 72
65
 73
2
 40
0.2
 49
0.1
 74
0
 49
-0.1
 74
0
  0
LTYPE
  5
1F7
100
AcDbSymbolTableRecord
100
AcDbLinetypeTableRecord
  2
PHANTOM
 70
64
  3
_____ _ _ _____ _ _ _____ _ _ _____
 72
65
 73
6
 40
0.8
 49
0.45
 74
0
 49
-0.05
 74
0
 49
0.1
 74
0
 49
-0.05
 74
0
 49
0.1
 74
0
 49
-0.05
 74
0
  0
LTYPE
  5
1F8
100
AcDbSymbolTableRecord
100
AcDbLinetypeTableRecord
  2
DOT
 70
64
  3
. . . . . . . . . . . . . . . . . . . .
 72
65
 73
2
 40
0.2
 49
0.1
 74
0
 49
-0.1
 74
0
  0
LTYPE
  5
1F9
100
AcDbSymbolTableRecord
100
AcDbLinetypeTableRecord
  2
DASHED
 70
64
  3
- - - - - - - - - - - - - - - - - - - -
 72
65
 73
2
 40
0.2
 49
0.1
 74
0
 49
-0.1
 74
0
  0
ENDTAB
  0
TABLE
  2
LAYER
  5
2
100
AcDbSymbolTable
 70
36
  0
LAYER
  5
10
100
AcDbSymbolTableRecord
100
AcDbLayerTableRecord
  2
0
 70
0
 62
7
  6
CONTINUOUS
370
-3
390
F
  0
LAYER
  5
1FA
100
AcDbSymbolTableRecord
100
AcDbLayerTableRecord
  2
DEFAULT_1
 70
0
 62
7
  6
CENTER
370
-3
390
F
  0
LAYER
  5
1FB
100
AcDbSymbolTableRecord
100
AcDbLayerTableRecord
  2
DEFAULT_2
 70
0
 62
7
  6
HIDDEN
370
-3
390
F
  0
LAYER
  5
1FC
100
AcDbSymbolTableRecord
100
AcDbLayerTableRecord
  2
DEFAULT_3
 70
0
 62
7
  6
PHANTOM
370
-3
390
F
  0
LAYER
  5
1FD
100
AcDbSymbolTableRecord
100
AcDbLayerTableRecord
  2
00_COMPONENTS
 70
0
 62
7
  6
CONTINUOUS
370
-3
390
F
  0
LAYER
  5
1FE
100
AcDbSymbolTableRecord
100
AcDbLayerTableRecord
  2
01_1_DEFAULT_DATUMS
 70
0
 62
7
  6
CONTINUOUS
370
-3
390
F
  0
LAYER
  5
1FF
100
AcDbSymbolTableRecord
100
AcDbLayerTableRecord
  2
01_PLANES
 70
0
 62
7
  6
CONTINUOUS
370
-3
390
F
  0
LAYER
  5
200
100
AcDbSymbolTableRecord
100
AcDbLayerTableRecord
  2
02_COORD_SYS
 70
0
 62
7
  6
CONTINUOUS
370
-3
390
F
  0
LAYER
  5
201
100
AcDbSymbolTableRecord
100
AcDbLayerTableRecord
  2
03_AXES
 70
0
 62
7
  6
CONTINUOUS
370
-3
390
F
  0
LAYER
  5
202
100
AcDbSymbolTableRecord
100
AcDbLayerTableRecord
  2
04_POINTS
 70
0
 62
7
  6
CONTINUOUS
370
-3
390
F
  0
LAYER
  5
203
100
AcDbSymbolTableRecord
100
AcDbLayerTableRecord
  2
05_CURVES
 70
0
 62
7
  6
CONTINUOUS
370
-3
390
F
  0
LAYER
  5
204
100
AcDbSymbolTableRecord
100
AcDbLayerTableRecord
  2
06_SURFS
 70
0
 62
7
  6
CONTINUOUS
370
-3
390
F
  0
LAYER
  5
205
100
AcDbSymbolTableRecord
100
AcDbLayerTableRecord
  2
07_COSMETICS
 70
0
 62
7
  6
CONTINUOUS
370
-3
390
F
  0
LAYER
  5
206
100
AcDbSymbolTableRecord
100
AcDbLayerTableRecord
  2
10_NOTES
 70
0
 62
7
  6
CONTINUOUS
370
-3
390
F
  0
LAYER
  5
207
100
AcDbSymbolTableRecord
100
AcDbLayerTableRecord
  2
11_NOTES_PUB
 70
0
 62
7
  6
CONTINUOUS
370
-3
390
F
  0
LAYER
  5
208
100
AcDbSymbolTableRecord
100
AcDbLayerTableRecord
  2
13_REF_GTOL
 70
0
 62
7
  6
CONTINUOUS
370
-3
390
F
  0
LAYER
  5
209
100
AcDbSymbolTableRecord
100
AcDbLayerTableRecord
  2
16_MISC
 70
0
 62
7
  6
CONTINUOUS
370
-3
390
F
  0
LAYER
  5
20A
100
AcDbSymbolTableRecord
100
AcDbLayerTableRecord
  2
17_NO_PRINT
 70
0
 62
7
  6
CONTINUOUS
370
-3
390
F
  0
LAYER
  5
20B
100
AcDbSymbolTableRecord
100
AcDbLayerTableRecord
  2
18_DATUM_CAMS_JOINTS
 70
0
 62
7
  6
CONTINUOUS
370
-3
390
F
  0
LAYER
  5
20C
100
AcDbSymbolTableRecord
100
AcDbLayerTableRecord
  2
19_DATUM_FUNCTIONAL
 70
0
 62
7
  6
CONTINUOUS
370
-3
390
F
  0
LAYER
  5
20D
100
AcDbSymbolTableRecord
100
AcDbLayerTableRecord
  2
20_DATUM_KINEMATIC_SCHEME
 70
0
 62
7
  6
CONTINUOUS
370
-3
390
F
  0
ENDTAB
  0
TABLE
  2
STYLE
  5
3
100
AcDbSymbolTable
 70
1
  0
STYLE
  5
11
100
AcDbSymbolTableRecord
100
AcDbTextStyleTableRecord
  2
STANDARD
 70
0
 40
0.0
 41
1.0
 50
0.0
 71
0
 42
0.2
  3
ARIAL.TTF
  4

  0
STYLE
  5
20E
100
AcDbSymbolTableRecord
100
AcDbTextStyleTableRecord
  2
TEXTSTYLE_1
 70
0
 40
0.0
 41
0.8
 50
0.0
 71
0
 42
0.2
  3
gdt
  4

  0
ENDTAB
  0
TABLE
  2
VIEW
  5
6
100
AcDbSymbolTable
 70
0
  0
ENDTAB
  0
TABLE
  2
UCS
  5
7
100
AcDbSymbolTable
 70
0
  0
ENDTAB
  0
TABLE
  2
APPID
  5
9
100
AcDbSymbolTable
 70
1
  0
APPID
  5
20F
100
AcDbSymbolTableRecord
100
AcDbRegAppTableRecord
  2
ACAD
 70
0
  0
ENDTAB
  0
TABLE
  2
BLOCK_RECORD
  5
1
100
AcDbSymbolTable
 70
0
  0
BLOCK_RECORD
  5
210
100
AcDbSymbolTableRecord
100
AcDbBlockTableRecord
  2
*Model_Space
  0
BLOCK_RECORD
  5
211
100
AcDbSymbolTableRecord
100
AcDbBlockTableRecord
  2
*Paper_Space
  0
BLOCK_RECORD
  5
212
100
AcDbSymbolTableRecord
100
AcDbBlockTableRecord
  2
_FILLED
  0
ENDTAB
  0
TABLE
  2
DIMSTYLE
  5
A
100
AcDbSymbolTable
 70
1
100
AcDbDimStyleTable
 71
0
  0
DIMSTYLE
105
213
100
AcDbSymbolTableRecord
100
AcDbDimStyleTableRecord
  2
STANDARD
 70
0
  3

  4

 40
1.0
 41
1.3641842792
 42
1.0
 43
0.38
 44
1.0
 45
0.0
 46
0.0
 47
0.01
 48
0.01
140
1.9098579908
141
0.09
142
0.0
143
25.4
144
1.0
145
0.0
146
1.0
147
0.625
 71
1
 72
0
 73
0
 74
0
 75
0
 76
0
 77
1
 78
8
 79
2
170
0
171
1
172
0
173
0
174
0
175
0
176
0
177
0
178
0
270
2
179
2
271
2
272
2
273
2
274
2
275
0
280
0
281
0
282
0
283
1
284
8
285
0
286
0
287
3
288
0
340
11
278
46
341
212
342
212
343
212
344
212
  0
ENDTAB
  0
ENDSEC
  0
SECTION
  2
BLOCKS
  0
BLOCK
  5
20
100
AcDbEntity
  8
0
100
AcDbBlockBegin
  2
*Model_Space
 70
0
 10
0.0
 20
0.0
 30
0.0
  3
*Model_Space
  1

  0
ENDBLK
  5
21
100
AcDbEntity
  8
0
100
AcDbBlockEnd
  0
BLOCK
  5
1C
100
AcDbEntity
  8
0
100
AcDbBlockBegin
  2
*Paper_Space
 70
0
 10
0.0
 20
0.0
 30
0.0
  3
*Paper_Space
  1

  0
ENDBLK
  5
1D
100
AcDbEntity
  8
0
100
AcDbBlockEnd
  0
BLOCK
  5
214
100
AcDbEntity
  8
0
100
AcDbBlockBegin
  2
_FILLED
 70
64
 10
0.0
 20
0.0
  3
_FILLED
  1

  0
SOLID
  5
215
100
AcDbEntity
  8
0
  6
BYBLOCK
 62
0
100
AcDbTrace
 10
0.0
 20
0.0
 11
-1.0
 21
0.25
 12
-1.0
 22
-0.25
 13
-1.0
 23
-0.25
  0
ENDBLK
  5
216
100
AcDbEntity
  8
0
  6
BYBLOCK
 62
0
100
AcDbBlockEnd
  0
ENDSEC
  0
SECTION
  2
ENTITIES
  0
LINE
  5
217
100
AcDbEntity
  8
0
100
AcDbLine
 62
7
  6
BYLAYER
 10
66.1197928717
 20
11.6044160383
 11
54.6471778694
 21
11.6044160383
  0
LINE
  5
218
100
AcDbEntity
  8
0
100
AcDbLine
 62
7
  6
BYLAYER
 10
68.117662255
 20
12.2533281572
 11
52.2493396082
 21
12.2533281572
  0
LINE
  5
219
100
AcDbEntity
  8
0
100
AcDbLine
 62
7
  6
BYLAYER
 10
55.9366212079
 20
20.156984236
 11
62.3301061654
 21
20.156984236
  0
LINE
  5
21A
100
AcDbEntity
  8
0
100
AcDbLine
 62
7
  6
BYLAYER
 10
55.9366212079
 20
20.8014923801
 11
62.3301061654
 21
20.8014923801
  0
LINE
  5
21B
100
AcDbEntity
  8
0
100
AcDbLine
 62
7
  6
BYLAYER
 10
70.4834853706
 20
21.7533281572
 11
68.2834853717
 21
21.7533281572
  0
LINE
  5
21C
100
AcDbEntity
  8
0
100
AcDbLine
 62
7
  6
BYLAYER
 10
52.0834853706
 20
22.2660410988
 11
53.0582500349
 21
22.2660410988
  0
LINE
  5
21D
100
AcDbEntity
  8
0
100
AcDbLine
 62
7
  6
BYLAYER
 10
67.308720712
 20
22.2660410988
 11
70.4834853706
 21
22.2660410988
  0
LINE
  5
21E
100
AcDbEntity
  8
0
100
AcDbLine
 62
7
  6
BYLAYER
 10
49.9334855653
 20
23.583327755
 11
68.3333077961
 21
23.5833271694
  0
LINE
  5
21F
100
AcDbEntity
  8
0
100
AcDbLine
 62
7
  6
BYLAYER
 10
68.3331266907
 20
24.6183281572
 11
69.4834853706
 21
24.6183281572
  0
LINE
  5
220
100
AcDbEntity
  8
0
100
AcDbLine
 62
7
  6
BYLAYER
 10
49.8834853706
 20
24.7183281572
 11
49.9334855635
 21
24.7183281572
  0
LINE
  5
221
100
AcDbEntity
  8
0
100
AcDbLine
 62
7
  6
BYLAYER
 10
68.3331266888
 20
25.7683281572
 11
70.4834853706
 21
25.7683281572
  0
LINE
  5
222
100
AcDbEntity
  8
0
100
AcDbLine
 62
7
  6
BYLAYER
 10
49.9334855569
 20
28.7833281572
 11
49.8834853706
 21
28.7833281572
  0
LINE
  5
223
100
AcDbEntity
  8
0
100
AcDbLine
 62
7
  6
BYLAYER
 10
49.9334855541
 20
30.504848435
 11
49.8834853706
 21
30.504848435
  0
LINE
  5
224
100
AcDbEntity
  8
0
100
AcDbLine
 62
7
  6
BYLAYER
 10
49.8834853706
 20
30.8933281572
 11
49.0234853706
 21
30.8933281572
  0
LINE
  5
225
100
AcDbEntity
  8
0
100
AcDbLine
 62
7
  6
BYLAYER
 10
49.0834853706
 20
31.0683281572
 11
47.0834853706
 21
31.0683281572
  0
LINE
  5
226
100
AcDbEntity
  8
0
100
AcDbLine
 62
7
  6
BYLAYER
 10
49.8834853706
 20
31.1933281572
 11
49.0834853706
 21
31.1933281572
  0
LINE
  5
227
100
AcDbEntity
  8
0
100
AcDbLine
 62
7
  6
BYLAYER
 10
49.8834853706
 20
31.6433281572
 11
49.0834853706
 21
31.6433281572
  0
LINE
  5
228
100
AcDbEntity
  8
0
100
AcDbLine
 62
7
  6
BYLAYER
 10
47.0834853706
 20
31.7683281572
 11
49.0834853706
 21
31.7683281572
  0
LINE
  5
229
100
AcDbEntity
  8
0
100
AcDbLine
 62
7
  6
BYLAYER
 10
49.8834853706
 20
31.9433281572
 11
49.0234853706
 21
31.9433281572
  0
LINE
  5
22A
100
AcDbEntity
  8
0
100
AcDbLine
 62
7
  6
BYLAYER
 10
51.5634853706
 20
46.8133281572
 11
60.1334853706
 21
46.8133281572
  0
LINE
  5
22B
100
AcDbEntity
  8
0
100
AcDbLine
 62
7
  6
BYLAYER
 10
52.9334853706
 20
47.4933281572
 11
58.7334853706
 21
47.4933281572
  0
LINE
  5
22C
100
AcDbEntity
  8
0
100
AcDbLine
 62
7
  6
BYLAYER
 10
60.1334853706
 20
47.8133281572
 11
66.2334853706
 21
47.8133281572
  0
LINE
  5
22D
100
AcDbEntity
  8
0
100
AcDbLine
 62
7
  6
BYLAYER
 10
58.7334853706
 20
49.2056132263
 11
62.6649084764
 21
49.2056132263
  0
LINE
  5
22E
100
AcDbEntity
  8
0
100
AcDbLine
 62
7
  6
BYLAYER
 10
62.6649084764
 20
56.5810430881
 11
58.7334853706
 21
56.5810430881
  0
LINE
  5
22F
100
AcDbEntity
  8
0
100
AcDbLine
 62
7
  6
BYLAYER
 10
66.2334853706
 20
57.9733281572
 11
60.1334853706
 21
57.9733281572
  0
LINE
  5
230
100
AcDbEntity
  8
0
100
AcDbLine
 62
7
  6
BYLAYER
 10
58.7334853706
 20
58.2933281572
 11
52.9334853706
 21
58.2933281572
  0
LINE
  5
231
100
AcDbEntity
  8
0
100
AcDbLine
 62
7
  6
BYLAYER
 10
60.1334853706
 20
58.9733281572
 11
51.5634853706
 21
58.9733281572
  0
LINE
  5
232
100
AcDbEntity
  8
0
100
AcDbLine
 62
7
  6
BYLAYER
 10
49.8834853706
 20
66.1281005254
 11
49.9334854963
 21
66.1281005254
  0
LINE
  5
233
100
AcDbEntity
  8
0
100
AcDbLine
 62
7
  6
BYLAYER
 10
49.9334854955
 20
66.6183281579
 11
49.8834853706
 21
66.6183281579
  0
LINE
  5
234
100
AcDbEntity
  8
0
100
AcDbLine
 62
7
  6
BYLAYER
 10
47.0834853706
 20
31.0683281572
 11
47.0834853706
 21
31.7683281572
  0
LINE
  5
235
100
AcDbEntity
  8
0
100
AcDbLine
 62
7
  6
BYLAYER
 10
47.0834853706
 20
112.8966744847
 11
47.0834853706
 21
113.5966744847
  0
LINE
  5
236
100
AcDbEntity
  8
0
100
AcDbLine
 62
7
  6
BYLAYER
 10
47.0834853706
 20
117.1107101821
 11
47.0834853706
 21
117.8107101821
  0
LINE
  5
237
100
AcDbEntity
  8
0
100
AcDbLine
 62
7
  6
BYLAYER
 10
47.0834853706
 20
121.3124241377
 11
47.0834853706
 21
122.0124241377
  0
LINE
  5
238
100
AcDbEntity
  8
0
100
AcDbLine
 62
7
  6
BYLAYER
 10
47.0834853706
 20
125.5141380933
 11
47.0834853706
 21
126.2141380933
  0
LINE
  5
239
100
AcDbEntity
  8
0
100
AcDbLine
 62
7
  6
BYLAYER
 10
47.0834853706
 20
129.7158520488
 11
47.0834853706
 21
130.4158520488
  0
LINE
  5
23A
100
AcDbEntity
  8
0
100
AcDbLine
 62
7
  6
BYLAYER
 10
47.0834853706
 20
133.9052442626
 11
47.0834853706
 21
134.6052442626
  0
LINE
  5
23B
100
AcDbEntity
  8
0
100
AcDbLine
 62
7
  6
BYLAYER
 10
49.0234853706
 20
30.8933281572
 11
49.0234853706
 21
31.0683281572
  0
LINE
  5
23C
100
AcDbEntity
  8
0
100
AcDbLine
 62
7
  6
BYLAYER
 10
49.0234853706
 20
31.7683281572
 11
49.0234853706
 21
31.9433281572
  0
LINE
  5
23D
100
AcDbEntity
  8
0
100
AcDbLine
 62
7
  6
BYLAYER
 10
49.0234853706
 20
129.5433281572
 11
49.0234853706
 21
129.7158520488
  0
LINE
  5
23E
100
AcDbEntity
  8
0
100
AcDbLine
 62
7
  6
BYLAYER
 10
49.0234853706
 20
130.4158520488
 11
49.0234853706
 21
130.5933281572
  0
LINE
  5
23F
100
AcDbEntity
  8
0
100
AcDbLine
 62
7
  6
BYLAYER
 10
49.0234853706
 20
133.7433281572
 11
49.0234853706
 21
133.9052442626
  0
LINE
  5
240
100
AcDbEntity
  8
0
100
AcDbLine
 62
7
  6
BYLAYER
 10
49.0234853706
 20
134.6052442626
 11
49.0234853706
 21
134.7933281572
  0
LINE
  5
241
100
AcDbEntity
  8
0
100
AcDbLine
 62
7
  6
BYLAYER
 10
49.0834853706
 20
30.8933281572
 11
49.0834853706
 21
31.9433281572
  0
LINE
  5
242
100
AcDbEntity
  8
0
100
AcDbLine
 62
7
  6
BYLAYER
 10
49.0834853706
 20
129.5433281572
 11
49.0834853706
 21
130.5933281572
  0
LINE
  5
243
100
AcDbEntity
  8
0
100
AcDbLine
 62
7
  6
BYLAYER
 10
49.0834853706
 20
133.7433281572
 11
49.0834853706
 21
134.7933281572
  0
LINE
  5
244
100
AcDbEntity
  8
0
100
AcDbLine
 62
7
  6
BYLAYER
 10
49.8834853706
 20
149.468845895
 11
49.8834853706
 21
148.0953758792
  0
LINE
  5
245
100
AcDbEntity
  8
0
100
AcDbLine
 62
7
  6
BYLAYER
 10
49.8834853706
 20
24.7183281572
 11
49.8834853706
 21
142.8183281572
  0
LINE
  5
246
100
AcDbEntity
  8
0
100
AcDbLine
 62
7
  6
BYLAYER
 10
49.9334855653
 20
23.5833283783
 11
49.9334853706
 21
143.5833281572
  0
LINE
  5
247
100
AcDbEntity
  8
0
100
AcDbLine
 62
7
  6
BYLAYER
 10
49.9334854922
 20
68.6183281608
 11
49.8834853706
 21
68.6183281608
  0
LINE
  5
248
100
AcDbEntity
  8
0
100
AcDbLine
 62
7
  6
BYLAYER
 10
52.0834853708
 20
21.7533281572
 11
52.2493396082
 21
12.2533281572
  0
LINE
  5
249
100
AcDbEntity
  8
0
100
AcDbLine
 62
7
  6
BYLAYER
 10
51.5634853706
 20
94.4733281572
 11
51.5634853706
 21
82.3133281572
  0
LINE
  5
24A
100
AcDbEntity
  8
0
100
AcDbLine
 62
7
  6
BYLAYER
 10
51.5634853706
 20
58.9733281572
 11
51.5634853706
 21
46.8133281572
  0
LINE
  5
24B
100
AcDbEntity
  8
0
100
AcDbLine
 62
7
  6
BYLAYER
 10
52.0834853706
 20
23.583327219
 11
52.0834853706
 21
22.2660410988
  0
LINE
  5
24C
100
AcDbEntity
  8
0
100
AcDbLine
 62
7
  6
BYLAYER
 10
52.0834853708
 20
22.2467520058
 11
52.0834853708
 21
21.7533281572
  0
LINE
  5
24D
100
AcDbEntity
  8
0
100
AcDbLine
 62
7
  6
BYLAYER
 10
52.0834853706
 20
143.5833281572
 11
52.0834853706
 21
148.0953758792
  0
LINE
  5
24E
100
AcDbEntity
  8
0
100
AcDbLine
 62
7
  6
BYLAYER
 10
52.2834853706
 20
143.7833281572
 11
52.2834853706
 21
149.468845895
  0
LINE
  5
24F
100
AcDbEntity
  8
0
100
AcDbLine
 62
7
  6
BYLAYER
 10
52.4332348008
 20
23.5833271318
 11
52.4332348008
 21
46.8133281572
  0
LINE
  5
250
100
AcDbEntity
  8
0
100
AcDbLine
 62
7
  6
BYLAYER
 10
52.4332348008
 20
49.1593754593
 11
52.4332348008
 21
51.547252953
  0
LINE
  5
251
100
AcDbEntity
  8
0
100
AcDbLine
 62
7
  6
BYLAYER
 10
52.4332348008
 20
54.2393754593
 11
52.4332348008
 21
56.627252953
  0
LINE
  5
252
100
AcDbEntity
  8
0
100
AcDbLine
 62
7
  6
BYLAYER
 10
52.4332348008
 20
58.9733281572
 11
52.4332348008
 21
82.3133281572
  0
LINE
  5
253
100
AcDbEntity
  8
0
100
AcDbLine
 62
7
  6
BYLAYER
 10
52.4332348008
 20
84.6593754593
 11
52.4332348008
 21
87.047252953
  0
LINE
  5
254
100
AcDbEntity
  8
0
100
AcDbLine
 62
7
  6
BYLAYER
 10
52.4332348008
 20
89.7393754593
 11
52.4332348008
 21
92.127252953
  0
LINE
  5
255
100
AcDbEntity
  8
0
100
AcDbLine
 62
7
  6
BYLAYER
 10
52.4332348008
 20
94.4733281572
 11
52.4332348008
 21
143.5833281572
  0
LINE
  5
256
100
AcDbEntity
  8
0
100
AcDbLine
 62
7
  6
BYLAYER
 10
52.9334853706
 20
93.7933281572
 11
52.9334853706
 21
93.1169032075
  0
LINE
  5
257
100
AcDbEntity
  8
0
100
AcDbLine
 62
7
  6
BYLAYER
 10
52.9334853706
 20
88.749753107
 11
52.9334853706
 21
88.0369032075
  0
LINE
  5
258
100
AcDbEntity
  8
0
100
AcDbLine
 62
7
  6
BYLAYER
 10
52.9334853706
 20
83.669753107
 11
52.9334853706
 21
82.9933281572
  0
LINE
  5
259
100
AcDbEntity
  8
0
100
AcDbLine
 62
7
  6
BYLAYER
 10
52.9334853706
 20
58.2933281572
 11
52.9334853706
 21
57.6169032075
  0
LINE
  5
25A
100
AcDbEntity
  8
0
100
AcDbLine
 62
7
  6
BYLAYER
 10
52.9334853706
 20
53.249753107
 11
52.9334853706
 21
52.5369032075
  0
LINE
  5
25B
100
AcDbEntity
  8
0
100
AcDbLine
 62
7
  6
BYLAYER
 10
52.9334853706
 20
48.169753107
 11
52.9334853706
 21
47.4933281572
  0
LINE
  5
25C
100
AcDbEntity
  8
0
100
AcDbLine
 62
7
  6
BYLAYER
 10
54.6471778694
 20
11.6044160383
 11
54.6471778694
 21
12.2533281572
  0
LINE
  5
25D
100
AcDbEntity
  8
0
100
AcDbLine
 62
7
  6
BYLAYER
 10
49.8834853706
 20
73.1242139906
 11
49.9334854849
 21
73.1242139906
  0
LINE
  5
25E
100
AcDbEntity
  8
0
100
AcDbLine
 62
7
  6
BYLAYER
 10
49.9334854841
 20
73.6183281572
 11
49.8834853706
 21
73.6183281572
  0
LINE
  5
25F
100
AcDbEntity
  8
0
100
AcDbLine
 62
7
  6
BYLAYER
 10
49.9334854809
 20
75.6183281601
 11
49.8834853706
 21
75.6183281601
  0
LINE
  5
260
100
AcDbEntity
  8
0
100
AcDbLine
 62
7
  6
BYLAYER
 10
49.8834853706
 20
75.6832146575
 11
49.9334854808
 21
75.6832146957
  0
LINE
  5
261
100
AcDbEntity
  8
0
100
AcDbLine
 62
7
  6
BYLAYER
 10
54.8720618099
 20
11.6044160383
 11
54.8720618099
 21
12.2533281572
  0
LINE
  5
262
100
AcDbEntity
  8
0
100
AcDbLine
 62
7
  6
BYLAYER
 10
54.9529808606
 20
143.7833281572
 11
54.9529808606
 21
149.468845895
  0
LINE
  5
263
100
AcDbEntity
  8
0
100
AcDbLine
 62
7
  6
BYLAYER
 10
54.9834853706
 20
143.7833281572
 11
54.9834853706
 21
149.468845895
  0
LINE
  5
264
100
AcDbEntity
  8
0
100
AcDbLine
 62
7
  6
BYLAYER
 10
55.1916972202
 20
11.6044160383
 11
55.1916972202
 21
12.2533281572
  0
LINE
  5
265
100
AcDbEntity
  8
0
100
AcDbLine
 62
7
  6
BYLAYER
 10
55.5471778694
 20
12.2533281572
 11
55.5471778694
 21
11.6044160383
  0
LINE
  5
266
100
AcDbEntity
  8
0
100
AcDbLine
 62
7
  6
BYLAYER
 10
55.9366212079
 20
20.156984236
 11
55.9366212079
 21
23.5833281572
  0
LINE
  5
267
100
AcDbEntity
  8
0
100
AcDbLine
 62
7
  6
BYLAYER
 10
55.9366212079
 20
143.5833281572
 11
55.9366212079
 21
147.1635069427
  0
LINE
  5
268
100
AcDbEntity
  8
0
100
AcDbLine
 62
7
  6
BYLAYER
 10
58.7334853706
 20
47.4933281572
 11
58.7334853706
 21
49.2056132263
  0
LINE
  5
269
100
AcDbEntity
  8
0
100
AcDbLine
 62
7
  6
BYLAYER
 10
58.7334853706
 20
56.5810430881
 11
58.7334853706
 21
58.2933281572
  0
LINE
  5
26A
100
AcDbEntity
  8
0
100
AcDbLine
 62
7
  6
BYLAYER
 10
58.7334853706
 20
82.9933281572
 11
58.7334853706
 21
84.7056132263
  0
LINE
  5
26B
100
AcDbEntity
  8
0
100
AcDbLine
 62
7
  6
BYLAYER
 10
58.7334853706
 20
92.0810430881
 11
58.7334853706
 21
93.7933281572
  0
LINE
  5
26C
100
AcDbEntity
  8
0
100
AcDbLine
 62
7
  6
BYLAYER
 10
59.1334853706
 20
111.1833281572
 11
59.1334853706
 21
138.5833281572
  0
LINE
  5
26D
100
AcDbEntity
  8
0
100
AcDbLine
 62
7
  6
BYLAYER
 10
60.1334853706
 20
46.8133281572
 11
60.1334853706
 21
47.8133281572
  0
LINE
  5
26E
100
AcDbEntity
  8
0
100
AcDbLine
 62
7
  6
BYLAYER
 10
60.1334853706
 20
57.9733281572
 11
60.1334853706
 21
58.9733281572
  0
LINE
  5
26F
100
AcDbEntity
  8
0
100
AcDbLine
 62
7
  6
BYLAYER
 10
60.1334853706
 20
82.3133281572
 11
60.1334853706
 21
83.3133281572
  0
LINE
  5
270
100
AcDbEntity
  8
0
100
AcDbLine
 62
7
  6
BYLAYER
 10
60.1334853706
 20
93.4733281572
 11
60.1334853706
 21
94.4733281572
  0
LINE
  5
271
100
AcDbEntity
  8
0
100
AcDbLine
 62
7
  6
BYLAYER
 10
62.3301061654
 20
147.1635069427
 11
62.3301061654
 21
143.5833281572
  0
LINE
  5
272
100
AcDbEntity
  8
0
100
AcDbLine
 62
7
  6
BYLAYER
 10
62.3301061654
 20
23.5833281572
 11
62.3301061654
 21
20.156984236
  0
LINE
  5
273
100
AcDbEntity
  8
0
100
AcDbLine
 62
7
  6
BYLAYER
 10
62.6649084764
 20
49.2056132263
 11
62.6649084764
 21
56.5810430881
  0
LINE
  5
274
100
AcDbEntity
  8
0
100
AcDbLine
 62
7
  6
BYLAYER
 10
62.6649084764
 20
84.7056132263
 11
62.6649084764
 21
92.0810430881
  0
LINE
  5
275
100
AcDbEntity
  8
0
100
AcDbLine
 62
7
  6
BYLAYER
 10
51.5634853706
 20
82.3133281572
 11
60.1334853706
 21
82.3133281572
  0
LINE
  5
276
100
AcDbEntity
  8
0
100
AcDbLine
 62
7
  6
BYLAYER
 10
52.9334853706
 20
82.9933281572
 11
58.7334853706
 21
82.9933281572
  0
LINE
  5
277
100
AcDbEntity
  8
0
100
AcDbLine
 62
7
  6
BYLAYER
 10
60.1334853706
 20
83.3133281572
 11
66.2334853706
 21
83.3133281572
  0
LINE
  5
278
100
AcDbEntity
  8
0
100
AcDbLine
 62
7
  6
BYLAYER
 10
58.7334853706
 20
84.7056132263
 11
62.6649084764
 21
84.7056132263
  0
LINE
  5
279
100
AcDbEntity
  8
0
100
AcDbLine
 62
7
  6
BYLAYER
 10
65.2197928717
 20
12.2533281572
 11
65.2197928717
 21
11.6044160383
  0
LINE
  5
27A
100
AcDbEntity
  8
0
100
AcDbLine
 62
7
  6
BYLAYER
 10
65.3834853706
 20
143.7833281572
 11
65.3834853706
 21
149.468845895
  0
LINE
  5
27B
100
AcDbEntity
  8
0
100
AcDbLine
 62
7
  6
BYLAYER
 10
65.4139898805
 20
143.7833281572
 11
65.4139898805
 21
149.468845895
  0
LINE
  5
27C
100
AcDbEntity
  8
0
100
AcDbLine
 62
7
  6
BYLAYER
 10
65.575273521
 20
11.6044160383
 11
65.575273521
 21
12.2533281572
  0
LINE
  5
27D
100
AcDbEntity
  8
0
100
AcDbLine
 62
7
  6
BYLAYER
 10
65.8949089312
 20
12.2533281572
 11
65.8949089312
 21
11.6044160383
  0
LINE
  5
27E
100
AcDbEntity
  8
0
100
AcDbLine
 62
7
  6
BYLAYER
 10
66.1197928717
 20
11.6044160383
 11
66.1197928717
 21
12.2533281572
  0
LINE
  5
27F
100
AcDbEntity
  8
0
100
AcDbLine
 62
7
  6
BYLAYER
 10
66.2334853706
 20
47.8133281572
 11
66.2334853706
 21
57.9733281572
  0
LINE
  5
280
100
AcDbEntity
  8
0
100
AcDbLine
 62
7
  6
BYLAYER
 10
66.2334853706
 20
83.3133281572
 11
66.2334853706
 21
93.4733281572
  0
LINE
  5
281
100
AcDbEntity
  8
0
100
AcDbLine
 62
7
  6
BYLAYER
 10
66.6334853706
 20
138.5833281572
 11
66.6334853706
 21
111.1833281572
  0
LINE
  5
282
100
AcDbEntity
  8
0
100
AcDbLine
 62
7
  6
BYLAYER
 10
68.2834853717
 20
21.7533281572
 11
68.2834853717
 21
22.2467544074
  0
LINE
  5
283
100
AcDbEntity
  8
0
100
AcDbLine
 62
7
  6
BYLAYER
 10
68.2834853706
 20
143.7833281572
 11
68.2834853706
 21
149.468845895
  0
LINE
  5
284
100
AcDbEntity
  8
0
100
AcDbLine
 62
7
  6
BYLAYER
 10
68.3331266924
 20
23.5833283783
 11
68.3334888997
 21
143.5833281572
  0
LINE
  5
285
100
AcDbEntity
  8
0
100
AcDbLine
 62
7
  6
BYLAYER
 10
69.4834853706
 20
142.9183281572
 11
69.4834853706
 21
141.7683281572
  0
LINE
  5
286
100
AcDbEntity
  8
0
100
AcDbLine
 62
7
  6
BYLAYER
 10
69.4834853706
 20
24.6183281572
 11
69.4834853706
 21
25.7683281572
  0
LINE
  5
287
100
AcDbEntity
  8
0
100
AcDbLine
 62
7
  6
BYLAYER
 10
70.4834853706
 20
21.7533281572
 11
70.4834853706
 21
25.7683281572
  0
LINE
  5
288
100
AcDbEntity
  8
0
100
AcDbLine
 62
7
  6
BYLAYER
 10
70.4834853706
 20
141.7683281572
 11
70.4834853706
 21
149.468845895
  0
LINE
  5
289
100
AcDbEntity
  8
0
100
AcDbLine
 62
7
  6
BYLAYER
 10
68.117662255
 20
12.2533281572
 11
68.2834853717
 21
21.7533281572
  0
LINE
  5
28A
100
AcDbEntity
  8
0
100
AcDbLine
 62
7
  6
BYLAYER
 10
62.6649084764
 20
92.0810430881
 11
58.7334853706
 21
92.0810430881
  0
LINE
  5
28B
100
AcDbEntity
  8
0
100
AcDbLine
 62
7
  6
BYLAYER
 10
66.2334853706
 20
93.4733281572
 11
60.1334853706
 21
93.4733281572
  0
LINE
  5
28C
100
AcDbEntity
  8
0
100
AcDbLine
 62
7
  6
BYLAYER
 10
58.7334853706
 20
93.7933281572
 11
52.9334853706
 21
93.7933281572
  0
LINE
  5
28D
100
AcDbEntity
  8
0
100
AcDbLine
 62
7
  6
BYLAYER
 10
49.8834853706
 20
94.1244783656
 11
49.9334854508
 21
94.1244783533
  0
LINE
  5
28E
100
AcDbEntity
  8
0
100
AcDbLine
 62
7
  6
BYLAYER
 10
60.1334853706
 20
94.4733281572
 11
51.5634853706
 21
94.4733281572
  0
LINE
  5
28F
100
AcDbEntity
  8
0
100
AcDbLine
 62
7
  6
BYLAYER
 10
49.93348545
 20
94.6183281573
 11
49.8834853706
 21
94.6183281573
  0
LINE
  5
290
100
AcDbEntity
  8
0
100
AcDbLine
 62
7
  6
BYLAYER
 10
49.9334854468
 20
96.6183281602
 11
49.8834853706
 21
96.6183281602
  0
LINE
  5
291
100
AcDbEntity
  8
0
100
AcDbLine
 62
7
  6
BYLAYER
 10
49.8834853706
 20
101.1283489906
 11
49.9334854395
 21
101.1283489906
  0
LINE
  5
292
100
AcDbEntity
  8
0
100
AcDbLine
 62
7
  6
BYLAYER
 10
49.9334854387
 20
101.6183281566
 11
49.8834853706
 21
101.6183281566
  0
LINE
  5
293
100
AcDbEntity
  8
0
100
AcDbLine
 62
7
  6
BYLAYER
 10
49.9334854374
 20
102.3858321267
 11
68.3334889666
 21
102.3858321267
  0
LINE
  5
294
100
AcDbEntity
  8
0
100
AcDbLine
 62
7
  6
BYLAYER
 10
49.9334854354
 20
103.6183281595
 11
49.8834853706
 21
103.6183281595
  0
LINE
  5
295
100
AcDbEntity
  8
0
100
AcDbLine
 62
7
  6
BYLAYER
 10
49.8834853706
 20
103.7362805901
 11
49.9334854352
 21
103.7362806265
  0
LINE
  5
296
100
AcDbEntity
  8
0
100
AcDbLine
 62
7
  6
BYLAYER
 10
66.6334853706
 20
111.1833281572
 11
59.1334853706
 21
111.1833281572
  0
LINE
  5
297
100
AcDbEntity
  8
0
100
AcDbLine
 62
7
  6
BYLAYER
 10
49.8834853706
 20
112.8966744847
 11
47.0834853706
 21
112.8966744847
  0
LINE
  5
298
100
AcDbEntity
  8
0
100
AcDbLine
 62
7
  6
BYLAYER
 10
47.0834853706
 20
113.5966744847
 11
49.8834853706
 21
113.5966744847
  0
LINE
  5
299
100
AcDbEntity
  8
0
100
AcDbLine
 62
7
  6
BYLAYER
 10
49.8834853706
 20
117.1107101821
 11
47.0834853706
 21
117.1107101821
  0
LINE
  5
29A
100
AcDbEntity
  8
0
100
AcDbLine
 62
7
  6
BYLAYER
 10
47.0834853706
 20
117.8107101821
 11
49.8834853706
 21
117.8107101821
  0
LINE
  5
29B
100
AcDbEntity
  8
0
100
AcDbLine
 62
7
  6
BYLAYER
 10
49.8834853706
 20
121.3124241377
 11
47.0834853706
 21
121.3124241377
  0
LINE
  5
29C
100
AcDbEntity
  8
0
100
AcDbLine
 62
7
  6
BYLAYER
 10
47.0834853706
 20
122.0124241377
 11
49.8834853706
 21
122.0124241377
  0
LINE
  5
29D
100
AcDbEntity
  8
0
100
AcDbLine
 62
7
  6
BYLAYER
 10
49.8834853706
 20
125.5141380933
 11
47.0834853706
 21
125.5141380933
  0
LINE
  5
29E
100
AcDbEntity
  8
0
100
AcDbLine
 62
7
  6
BYLAYER
 10
47.0834853706
 20
126.2141380933
 11
49.8834853706
 21
126.2141380933
  0
LINE
  5
29F
100
AcDbEntity
  8
0
100
AcDbLine
 62
7
  6
BYLAYER
 10
49.8834853706
 20
129.5433281572
 11
49.0234853706
 21
129.5433281572
  0
LINE
  5
2A0
100
AcDbEntity
  8
0
100
AcDbLine
 62
7
  6
BYLAYER
 10
49.0834853706
 20
129.7158520488
 11
47.0834853706
 21
129.7158520488
  0
LINE
  5
2A1
100
AcDbEntity
  8
0
100
AcDbLine
 62
7
  6
BYLAYER
 10
49.8834853706
 20
129.8433281572
 11
49.0834853706
 21
129.8433281572
  0
LINE
  5
2A2
100
AcDbEntity
  8
0
100
AcDbLine
 62
7
  6
BYLAYER
 10
49.8834853706
 20
130.2933281572
 11
49.0834853706
 21
130.2933281572
  0
LINE
  5
2A3
100
AcDbEntity
  8
0
100
AcDbLine
 62
7
  6
BYLAYER
 10
47.0834853706
 20
130.4158520488
 11
49.0834853706
 21
130.4158520488
  0
LINE
  5
2A4
100
AcDbEntity
  8
0
100
AcDbLine
 62
7
  6
BYLAYER
 10
49.8834853706
 20
130.5933281572
 11
49.0234853706
 21
130.5933281572
  0
LINE
  5
2A5
100
AcDbEntity
  8
0
100
AcDbLine
 62
7
  6
BYLAYER
 10
49.8834853706
 20
133.7433281572
 11
49.0234853706
 21
133.7433281572
  0
LINE
  5
2A6
100
AcDbEntity
  8
0
100
AcDbLine
 62
7
  6
BYLAYER
 10
49.0834853706
 20
133.9052442626
 11
47.0834853706
 21
133.9052442626
  0
LINE
  5
2A7
100
AcDbEntity
  8
0
100
AcDbLine
 62
7
  6
BYLAYER
 10
49.8834853706
 20
134.0433281572
 11
49.0834853706
 21
134.0433281572
  0
LINE
  5
2A8
100
AcDbEntity
  8
0
100
AcDbLine
 62
7
  6
BYLAYER
 10
49.8834853706
 20
134.4933281572
 11
49.0834853706
 21
134.4933281572
  0
LINE
  5
2A9
100
AcDbEntity
  8
0
100
AcDbLine
 62
7
  6
BYLAYER
 10
47.0834853706
 20
134.6052442626
 11
49.0834853706
 21
134.6052442626
  0
LINE
  5
2AA
100
AcDbEntity
  8
0
100
AcDbLine
 62
7
  6
BYLAYER
 10
49.8834853706
 20
134.7933281572
 11
49.0234853706
 21
134.7933281572
  0
LINE
  5
2AB
100
AcDbEntity
  8
0
100
AcDbLine
 62
7
  6
BYLAYER
 10
49.9334853793
 20
138.1832801017
 11
49.8834853706
 21
138.1832801017
  0
LINE
  5
2AC
100
AcDbEntity
  8
0
100
AcDbLine
 62
7
  6
BYLAYER
 10
59.1334853706
 20
138.5833281572
 11
66.6334853706
 21
138.5833281572
  0
LINE
  5
2AD
100
AcDbEntity
  8
0
100
AcDbLine
 62
7
  6
BYLAYER
 10
68.3334889027
 20
141.7683281572
 11
70.4834853706
 21
141.7683281572
  0
LINE
  5
2AE
100
AcDbEntity
  8
0
100
AcDbLine
 62
7
  6
BYLAYER
 10
49.8834853706
 20
142.8183281572
 11
49.9334853718
 21
142.8183281572
  0
LINE
  5
2AF
100
AcDbEntity
  8
0
100
AcDbLine
 62
7
  6
BYLAYER
 10
68.3334889008
 20
142.9183281572
 11
69.4834853706
 21
142.9183281572
  0
LINE
  5
2B0
100
AcDbEntity
  8
0
100
AcDbLine
 62
7
  6
BYLAYER
 10
68.3332766139
 20
143.5833241256
 11
49.9334853706
 21
143.5833281572
  0
LINE
  5
2B1
100
AcDbEntity
  8
0
100
AcDbLine
 62
7
  6
BYLAYER
 10
70.4834853706
 20
143.7833281572
 11
62.3301061654
 21
143.7833281572
  0
LINE
  5
2B2
100
AcDbEntity
  8
0
100
AcDbLine
 62
7
  6
BYLAYER
 10
55.9366212079
 20
143.7833281572
 11
52.0834853706
 21
143.7833281572
  0
LINE
  5
2B3
100
AcDbEntity
  8
0
100
AcDbLine
 62
7
  6
BYLAYER
 10
55.9366212079
 20
146.5444172205
 11
62.3301061654
 21
146.5444172205
  0
LINE
  5
2B4
100
AcDbEntity
  8
0
100
AcDbLine
 62
7
  6
BYLAYER
 10
55.9366212079
 20
147.1635069427
 11
62.3301061654
 21
147.1635069427
  0
LINE
  5
2B5
100
AcDbEntity
  8
0
100
AcDbLine
 62
7
  6
BYLAYER
 10
52.0834853706
 20
148.0953758792
 11
49.8834853706
 21
148.0953758792
  0
LINE
  5
2B6
100
AcDbEntity
  8
0
100
AcDbLine
 62
7
  6
BYLAYER
 10
49.8834853706
 20
149.468845895
 11
70.4834853706
 21
149.468845895
  0
ARC
  5
2B7
100
AcDbEntity
  8
0
100
AcDbCircle
 62
7
  6
BYLAYER
 10
60.1834853702
 20
-2.9516718406
 40
26.2049999978
100
AcDbArc
 50
99.3995352172
 51
105.7775770021
  0
ARC
  5
2B8
100
AcDbEntity
  8
0
100
AcDbCircle
 62
7
  6
BYLAYER
 10
60.1834853702
 20
-2.9516718406
 40
26.2049999978
100
AcDbArc
 50
74.2224229841
 51
85.2453007528
  0
ARC
  5
2B9
100
AcDbEntity
  8
0
100
AcDbCircle
 62
7
  6
BYLAYER
 10
55.5134853706
 20
50.3533281572
 40
3.38
100
AcDbArc
 50
139.7571956877
 51
220.2428043123
  0
ARC
  5
2BA
100
AcDbEntity
  8
0
100
AcDbCircle
 62
7
  6
BYLAYER
 10
55.5134853706
 20
55.4333281572
 40
3.38
100
AcDbArc
 50
139.7571956877
 51
220.2428043123
  0
ARC
  5
2BB
100
AcDbEntity
  8
0
100
AcDbCircle
 62
7
  6
BYLAYER
 10
55.5134853706
 20
85.8533281572
 40
3.38
100
AcDbArc
 50
139.7571956877
 51
220.2428043123
  0
ARC
  5
2BC
100
AcDbEntity
  8
0
100
AcDbCircle
 62
7
  6
BYLAYER
 10
55.5134853706
 20
90.9333281572
 40
3.38
100
AcDbArc
 50
139.7571956877
 51
220.2428043123
  0
SPLINE
  5
2BD
100
AcDbEntity
  8
0
100
AcDbSpline
 62
7
  6
BYLAYER
 70
0
 71
3
 72
9
 73
5
 74
0
 42
0.0000001
 43
0.0000001
 44
0.0000000001
 40
0.0
 40
0.0
 40
0.0
 40
0.0
 40
0.1362845308
 40
1.0
 40
1.0
 40
1.0
 40
1.0
 10
62.3302105664
 20
21.7199452189
 30
0.0
 10
62.3605603082
 20
21.6993707586
 30
0.0
 10
62.5806577448
 20
21.5446125073
 30
0.0
 10
62.7805355408
 20
21.3619971287
 30
0.0
 10
62.9374456908
 20
21.1911613408
 30
0.0
  0
SPLINE
  5
2BE
100
AcDbEntity
  8
0
100
AcDbSpline
 62
7
  6
BYLAYER
 70
0
 71
3
 72
11
 73
7
 74
0
 42
0.0000001
 43
0.0000001
 44
0.0000000001
 40
0.0
 40
0.0
 40
0.0
 40
0.0
 40
0.2502567548
 40
0.5004904553
 40
0.7502321219
 40
1.0
 40
1.0
 40
1.0
 40
1.0
 10
62.9374456908
 20
21.1911613408
 30
0.0
 10
63.2168518717
 20
20.8869581069
 30
0.0
 10
63.6653112825
 20
20.1652212519
 30
0.0
 10
63.8946944683
 20
18.9153054696
 30
0.0
 10
63.6655673302
 20
17.66637625
 30
0.0
 10
63.2188813498
 20
16.9455860005
 30
0.0
 10
62.9403986456
 20
16.6416293311
 30
0.0
  0
SPLINE
  5
2BF
100
AcDbEntity
  8
0
100
AcDbSpline
 62
7
  6
BYLAYER
 70
0
 71
3
 72
10
 73
6
 74
0
 42
0.0000001
 43
0.0000001
 44
0.0000000001
 40
0.0
 40
0.0
 40
0.0
 40
0.0
 40
0.3364037049
 40
0.6730228294
 40
1.0
 40
1.0
 40
1.0
 40
1.0
 10
62.9403986456
 20
16.6416293311
 30
0.0
 10
62.7737106995
 20
16.4596937489
 30
0.0
 10
62.4047791852
 20
16.1247559075
 30
0.0
 10
61.755228553
 20
15.7706332411
 30
0.0
 10
61.2855128591
 20
15.6249984988
 30
0.0
 10
61.0493968855
 20
15.5786482002
 30
0.0
  0
SPLINE
  5
2C0
100
AcDbEntity
  8
0
100
AcDbSpline
 62
7
  6
BYLAYER
 70
0
 71
3
 72
9
 73
5
 74
0
 42
0.0000001
 43
0.0000001
 44
0.0000000001
 40
0.0
 40
0.0
 40
0.0
 40
0.0
 40
0.2811360004
 40
1.0
 40
1.0
 40
1.0
 40
1.0
 10
61.0493968855
 20
15.5786482002
 30
0.0
 10
60.9885581615
 20
15.5667053698
 30
0.0
 10
60.7722547597
 20
15.5227781236
 30
0.0
 10
60.5501834806
 20
15.5148468297
 30
0.0
 10
60.3915227971
 20
15.5148374536
 30
0.0
  0
SPLINE
  5
2C1
100
AcDbEntity
  8
0
100
AcDbSpline
 62
7
  6
BYLAYER
 70
0
 71
3
 72
9
 73
5
 74
0
 42
0.0000001
 43
0.0000001
 44
0.0000000001
 40
0.0
 40
0.0
 40
0.0
 40
0.0
 40
0.2713622298
 40
1.0
 40
1.0
 40
1.0
 40
1.0
 10
60.3915227971
 20
15.5148374536
 30
0.0
 10
60.3226457972
 20
15.5148333833
 30
0.0
 10
60.068656495
 20
15.5154281008
 30
0.0
 10
59.8162109516
 20
15.5567801473
 30
0.0
 10
59.6357296729
 20
15.5969123379
 30
0.0
  0
SPLINE
  5
2C2
100
AcDbEntity
  8
0
100
AcDbSpline
 62
7
  6
BYLAYER
 70
0
 71
3
 72
16
 73
12
 74
0
 42
0.0000001
 43
0.0000001
 44
0.0000000001
 40
0.0
 40
0.0
 40
0.0
 40
0.0
 40
0.1234382078
 40
0.3589739485
 40
0.4659520553
 40
0.5711521708
 40
0.6763512133
 40
0.7832955639
 40
0.8905594367
 40
0.9957210051
 40
1.0
 40
1.0
 40
1.0
 40
1.0
 10
59.6357296729
 20
15.5969123379
 30
0.0
 10
59.3997838173
 20
15.6493777466
 30
0.0
 10
58.7286539721
 20
15.8726373628
 30
0.0
 10
57.969582761
 20
16.4259097272
 30
0.0
 10
57.4394735263
 20
17.1260173392
 30
0.0
 10
57.1608481391
 20
17.6847190839
 30
0.0
 10
56.9912502565
 20
18.2858884638
 30
0.0
 10
56.9337824152
 20
18.9122897322
 30
0.0
 10
56.9879946836
 20
19.5390667131
 30
0.0
 10
57.1038222832
 20
19.949731151
 30
0.0
 10
57.1820361875
 20
20.1493364082
 30
0.0
 10
57.1851242477
 20
20.1571286309
 30
0.0
  0
LINE
  5
2C3
100
AcDbEntity
  8
0
100
AcDbLine
 62
7
  6
BYLAYER
 10
52.0834853707
 20
22.2467498018
 11
52.4086485853
 21
22.2544174811
  0
ENDSEC
  0
SECTION
  2
OBJECTS
  0
DICTIONARY
  5
C
100
AcDbDictionary
280
0
281
1
  3
ACAD_GROUP
350
D
  3
ACAD_MLINESTYLE
350
17
  3
ACAD_LAYOUT
350
1A
  3
ACAD_PLOTSETTINGS
350
19
  3
ACAD_PLOTSTYLENAME
350
E
  0
DICTIONARY
  5
D
102
{ACAD_REACTORS
330
C
102
}
100
AcDbDictionary
280
0
281
1
  0
ACDBDICTIONARYWDFLT
  5
E
102
{ACAD_REACTORS
330
C
102
}
100
AcDbDictionary
281
1
  3
Normal
350
F
100
AcDbDictionaryWithDefault
340
F
  0
DICTIONARY
  5
17
102
{ACAD_REACTORS
330
C
102
}
100
AcDbDictionary
280
0
281
1
  3
Standard
350
18
  0
DICTIONARY
  5
19
102
{ACAD_REACTORS
330
C
102
}
100
AcDbDictionary
281
1
  0
DICTIONARY
  5
1A
102
{ACAD_REACTORS
330
C
102
}
100
AcDbDictionary
281
1
  3
Model
350
2C4
  3
Layout1
350
2C5
  0
ACDBPLACEHOLDER
  5
F
102
{ACAD_REACTORS
330
E
102
}
  0
MLINESTYLE
  5
18
102
{ACAD_REACTORS
330
17
102
}
100
AcDbMlineStyle
  2
STANDARD
 70
0
  3

 62
256
 51
90.0
 52
90.0
 71
2
 49
0.5
 62
256
  6
BYLAYER
 49
-0.5
 62
256
  6
BYLAYER
  0
LAYOUT
  5
2C4
102
{ACAD_REACTORS
330
1A
102
}
100
AcDbPlotSettings
  1

  2
none_device
  4

  6

 40
0.0
 41
0.0
 42
0.0
 43
0.0
 44
210.0
 45
297.0
 46
0.0
 47
0.0
 48
0.0
 49
0.0
140
0.0
141
0.0
142
1.0
143
1.0
 70
1024
 72
1
 73
0
 74
0
  7

 75
0
147
1.0
148
0.0
149
0.0
100
AcDbLayout
  1
Model
 70
0
 71
0
 10
0.0
 20
0.0
 11
210.0
 21
297.0
 12
0.0
 22
0.0
 32
0.0
 14
0.0
 24
0.0
 34
0.0
 15
0.0
 25
0.0
 35
0.0
146
0.0
 13
0.0
 23
0.0
 33
0.0
 16
1.0
 26
0.0
 36
0.0
 17
0.0
 27
1.0
 37
0.0
 76
0
330
210
345
0
346
0
  0
LAYOUT
  5
2C5
102
{ACAD_REACTORS
330
1A
102
}
100
AcDbPlotSettings
  1

  2
none_device
  4

  6

 40
0.0
 41
0.0
 42
0.0
 43
0.0
 44
210.0
 45
297.0
 46
0.0
 47
0.0
 48
0.0
 49
0.0
140
0.0
141
0.0
142
1.0
143
1.0
 70
0
 72
1
 73
0
 74
0
  7

 75
0
147
1.0
148
0.0
149
0.0
100
AcDbLayout
  1
Layout1
 70
0
 71
1
 10
0.0
 20
0.0
 11
210.0
 21
297.0
 12
0.0
 22
0.0
 32
0.0
 14
0.0
 24
0.0
 34
0.0
 15
0.0
 25
0.0
 35
0.0
146
0.0
 13
0.0
 23
0.0
 33
0.0
 16
1.0
 26
0.0
 36
0.0
 17
0.0
 27
1.0
 37
0.0
 76
0
330
211
345
0
346
0
  0
ENDSEC
  0
EOF
